<svg width="512" height="512" viewBox="0 0 512 512" fill="none" xmlns="http://www.w3.org/2000/svg">
<path d="M201.837 53.087L177.547 21H233.223L201.837 53.087ZM278.766 21L309.586 52.465L333.065 21H278.767H278.766ZM291.194 59.12L256 23.18L220.75 59.165H291.25L291.194 59.12ZM373.285 59.12L349.774 28.265L326.771 59.165H373.341L373.285 59.12ZM161.096 28.683L138.5 59.188H184.246L161.096 28.683ZM212.344 76.925L256 196.821L299.69 76.925H212.31H212.344ZM139.178 76.925L229.562 175.942L193.409 76.925H139.178ZM372.89 76.925H318.66L282.584 175.942L372.89 76.925ZM353.435 125.067L324.376 156.905C350.115 169.66 371.782 189.346 386.938 213.748C402.094 238.15 410.137 266.298 410.162 295.024C410.14 380.008 340.995 449.197 256 449.197C171.005 449.197 101.86 380.053 101.86 295.057C101.885 266.331 109.929 238.183 125.085 213.781C140.241 189.379 161.908 169.693 187.647 156.938L158.588 125.1C128.67 142.254 103.806 166.997 86.5065 196.832C69.207 226.667 60.0839 260.537 60.058 295.024C60.057 403.056 147.955 491 256 491C364.044 491 451.943 403.101 451.943 295.057C451.927 260.557 442.808 226.673 425.506 196.825C408.204 166.978 383.331 142.225 353.401 125.067H353.435Z" fill="white"/>
</svg>
