<svg style="height: 512px; width: 512px;" xmlns="http://www.w3.org/2000/svg" viewBox="0 0 512 512"><path d="M0 0h512v512H0z" fill="#000000" fill-opacity="0.01"></path><g class="" style="" transform="translate(0,0)"><g><path d="M256 25C206.52699279785156 25 161.1959991455078 54.189998626708984 127.65799713134766 103.0999984741211C94.12100219726562 152.00900268554688 73 220.34800720214844 73 296C73 348.552001953125 83.197998046875 397.5669860839844 100.66400146484375 439L411.33599853515625 439C428.802001953125 397.5669860839844 439 348.552001953125 439 296C439 220.34800720214844 417.8800048828125 152.00900268554688 384.3420104980469 103.0999984741211C350.8039855957031 54.189998626708984 305.47198486328125 25 256 25Z" class="" fill="#f5bb5b" fill-opacity="1"></path><path d="M230.0780029296875 49.45899963378906C237.34800720214844 49.59199905395508 243.5469970703125 52.236000061035156 244.4709930419922 59.03499984741211C183.59800720214844 83.00299835205078 130.46800231933594 174.39500427246094 96.99800109863281 234.88499450683594C100.25399780273438 189.8070068359375 146.31100463867188 65.92500305175781 223.0679931640625 50.02000045776367C224.89999389648438 49.70500183105469 226.7530059814453 49.51900100708008 228.61099243164062 49.46500015258789C229.10000610351562 49.45199966430664 229.58900451660156 49.45000076293945 230.0780029296875 49.45899963378906Z" class="" fill="#f5a623" fill-opacity="1"></path><path d="M267.4530029296875 125.63899993896484C268.4840087890625 125.61900329589844 269.51300048828125 125.64299774169922 270.5329895019531 125.70899963378906C278.70001220703125 126.23799896240234 286.6730041503906 129.3800048828125 292.87298583984375 135.10699462890625C299.5880126953125 141.34100341796875 303.2560119628906 150.19000244140625 302.9179992675781 159.3470001220703C301.7380065917969 191.9199981689453 292.25799560546875 223.4969940185547 284.42999267578125 254.24000549316406C287.81500244140625 255.21200561523438 290.85400390625 256.6159973144531 293.55999755859375 258.4800109863281C295.1600036621094 259.5849914550781 296.6369934082031 260.8590087890625 297.9649963378906 262.2799987792969C300.718994140625 261.2049865722656 303.5299987792969 260.6080017089844 306.24798583984375 260.5039978027344C306.7250061035156 260.4859924316406 307.197998046875 260.4830017089844 307.6679992675781 260.4939880371094C310.39300537109375 260.55999755859375 312.9880065917969 261.13299560546875 315.3009948730469 262.1940002441406L401.9200134277344 227.9739990234375L408.5329895019531 244.71400451660156L326.5429992675781 277.10699462890625C326.5929870605469 277.3659973144531 326.64599609375 277.62298583984375 326.68701171875 277.8810119628906C327.86700439453125 285.1910095214844 325.5690002441406 292.4830017089844 320.2539978027344 298.12298583984375C319.3949890136719 299.02398681640625 318.45599365234375 299.84698486328125 317.4490051269531 300.5799865722656L362.3340148925781 319.9549865722656L354.84600830078125 359.3219909667969L337.1619873046875 355.9590148925781L341.9549865722656 330.7640075683594L308.45098876953125 316.3009948730469L329.2869873046875 349.281005859375L306.0369873046875 380.1889953613281L291.6520080566406 369.3689880371094L307.4339904785156 348.3909912109375L286.85699462890625 315.8219909667969C285.7120056152344 316.3500061035156 284.5270080566406 316.7860107421875 283.31201171875 317.125L288.2120056152344 365.7539978027344L245.656005859375 372.8399963378906L242.69900512695312 355.0840148925781L268.6130065917969 350.7699890136719L264.9219970703125 314.1520080566406C262.8070068359375 312.85699462890625 260.9020080566406 311.2820129394531 259.1990051269531 309.5039978027344C248.5050048828125 320.10198974609375 235.19900512695312 329.1239929199219 218.63099670410156 335.75799560546875L222.92599487304688 382.63299560546875L170.52099609375 395.6969909667969L166.16799926757812 378.23199462890625L203.5919952392578 368.9020080566406L200.55099487304688 335.7090148925781L176.98399353027344 367.2090148925781L128.52499389648438 352.4320068359375L133.77499389648438 335.2120056152344L170.14500427246094 346.30499267578125L195.99200439453125 311.75201416015625C206.14199829101562 290.99200439453125 222.38999938964844 277.12200927734375 240.9720001220703 265.78900146484375C202.9600067138672 250.82899475097656 173.36000061035156 227.3260040283203 156.35899353027344 193.49899291992188C151.8090057373047 184.4459991455078 153.24400329589844 173.4929962158203 160.7519989013672 164.89999389648438C165.44400024414062 159.52999877929688 172.81199645996094 156.197998046875 181.78199768066406 156.00999450683594C187.16200256347656 155.89700317382812 193.1199951171875 156.91400146484375 199.4239959716797 159.3000030517578C216.91799926757812 165.9239959716797 229.31399536132812 177.88699340820312 238.85499572753906 191.70899963378906C236.7689971923828 181.5590057373047 235.52699279785156 170.927001953125 235.7209930419922 159.593994140625C235.91299438476562 148.35699462890625 240.18099975585938 139.00399780273438 246.9530029296875 133.1840057373047C252.87899780273438 128.08999633789062 260.2359924316406 125.78199768066406 267.4530029296875 125.63899993896484Z" class="" fill="#4a4a4a" fill-opacity="1"></path><path d="M267.8179931640625 143.63499450683594C264.2460021972656 143.7010040283203 261.0299987792969 144.8209991455078 258.68798828125 146.83399963378906C256.010986328125 149.13499450683594 253.83999633789062 152.71200561523438 253.7169952392578 159.89999389648438C253.26800537109375 186.17300415039062 262.26800537109375 209.27699279785156 271.0840148925781 233.76199340820312C277.6940002441406 208.19200134277344 284.04998779296875 183.00100708007812 284.92999267578125 158.69700622558594C285.0989990234375 154.02200317382812 283.489990234375 150.94400024414062 280.6600036621094 148.3300018310547C277.83099365234375 145.7169952392578 273.5559997558594 143.9429931640625 269.3699951171875 143.6719970703125C268.8529968261719 143.63800048828125 268.33599853515625 143.62600708007812 267.8179931640625 143.63499450683594Z" class="" fill="#fff" fill-opacity="1"></path><path d="M182.25799560546875 173.56100463867188C181.46200561523438 173.53199768066406 180.66400146484375 173.57200622558594 179.875 173.68099975585938C177.03399658203125 174.09300231933594 175.45899963378906 175.42300415039062 174.3070068359375 176.74200439453125C172.00100708007812 179.38099670410156 172.14999389648438 184.83599853515625 172.4409942626953 185.41600036621094C187.20700073242188 214.79600524902344 212.80799865722656 235.3730010986328 247.7169952392578 249.00799560546875C241.99200439453125 236.177001953125 236.6750030517578 223.47799682617188 230.48800659179688 212.35400390625C221.13800048828125 195.54400634765625 210.30099487304688 182.6649932861328 193.05099487304688 176.13400268554688C188.38099670410156 174.36700439453125 184.9040069580078 173.63999938964844 182.25799560546875 173.56100463867188Z" class="selected" fill="#fff" fill-opacity="1"></path><path d="M248.33999633789062 282.58599853515625C235.14199829101562 290.8489990234375 224.25 300.00201416015625 216.468994140625 312.16400146484375L216.85699462890625 316.3940124511719L217.19700622558594 316.74798583984375C231.07699584960938 310.4200134277344 241.58900451660156 302.27398681640625 250.08700561523438 292.760009765625C249.1840057373047 289.4320068359375 248.5989990234375 286.0249938964844 248.33999633789062 282.58599853515625Z" class="" fill="#000000" fill-opacity="1"></path><path d="M89 457L89 487L423 487L423 457L89 457Z" class="" fill="#c9c9c9" fill-opacity="1"></path></g></g></svg>