<svg style="height: 512px; width: 512px;" xmlns="http://www.w3.org/2000/svg" viewBox="0 0 512 512"><path d="M0 0h512v512H0z" fill="#000000" fill-opacity="0.01"></path><g class="" style="" transform="translate(-1,29)"><g><path d="M256 92.30000305175781C202.8000030517578 92.30000305175781 153.1999969482422 107.0999984741211 113.80000305175781 129.6999969482422L128 152.10000610351562L112.80000305175781 161.6999969482422L98.56999969482422 139.1999969482422C96.4000015258789 140.60000610351562 94.2699966430664 142.10000610351562 92.18000030517578 143.60000610351562C53.43000030517578 171.5 29.059999465942383 207.3000030517578 25.479999542236328 240.8000030517578C28.459999084472656 247.5 33.599998474121094 258.29998779296875 40.220001220703125 269.6000061035156C50.95000076293945 287.8999938964844 66.44000244140625 306.20001220703125 77.41000366210938 309.3999938964844C95.33000183105469 306.8999938964844 111.4000015258789 287.29998779296875 127.69999694824219 290.1000061035156C152.8000030517578 295.20001220703125 165.8000030517578 318.5 178 338.1000061035156C187.3000030517578 352.6000061035156 199.10000610351562 372.79998779296875 216.10000610351562 374.6000061035156C222.3000030517578 375.29998779296875 227.6999969482422 373.3999938964844 233.8000030517578 369.3999938964844C239.89999389648438 365.29998779296875 246.3000030517578 359 253 352.1000061035156C266.20001220703125 338.3999938964844 280.70001220703125 321.20001220703125 302.5 318.5C317.79998779296875 316.5 330.1000061035156 324.70001220703125 340.6000061035156 330.8999938964844C351 337 359.29998779296875 341.1000061035156 366.1000061035156 339.5L366.20001220703125 339.5C377.29998779296875 334.1000061035156 383 324.70001220703125 388.29998779296875 316.29998779296875L352.70001220703125 290.8999938964844L363.1000061035156 276.29998779296875L399 301.8999938964844C404.1000061035156 296.3999938964844 410.3999938964844 291.8999938964844 418.70001220703125 290.1000061035156C430.20001220703125 287.6000061035156 439.1000061035156 293.8999938964844 445.79998779296875 298.1000061035156C452.3999938964844 302.29998779296875 457 304.3999938964844 459.6000061035156 303.8999938964844C462.70001220703125 303.29998779296875 471.3999938964844 296.8999938964844 477.70001220703125 290.1000061035156C479.70001220703125 287.8999938964844 481.6000061035156 285.70001220703125 483.1000061035156 283.79998779296875C485.70001220703125 272.8999938964844 487 261.3999938964844 487 249.3000030517578C487 247.8000030517578 486.8999938964844 246.3000030517578 486.8999938964844 244.89999389648438L449.29998779296875 263.6000061035156L441.29998779296875 247.39999389648438L483.70001220703125 226.1999969482422C475.70001220703125 197.1999969482422 453 167.5 419.79998779296875 143.60000610351562C377.79998779296875 113.30000305175781 319.5 92.30000305175781 256 92.30000305175781Z" class="" fill="#ff0000" fill-opacity="1"></path><path d="M325.1000061035156 106.5L331.1000061035156 123.5L280.79998779296875 141.60000610351562L274.79998779296875 124.5999984741211Z" class="" fill="#ffffff" fill-opacity="1"></path><path d="M184.89999389648438 117.5L218.3000030517578 127.0999984741211L213.3000030517578 144.3000030517578L179.89999389648438 134.8000030517578Z" class="" fill="#ffffff" fill-opacity="1"></path><path d="M369.29998779296875 140.5L409 168.10000610351562L398.79998779296875 182.89999389648438L359.1000061035156 155.3000030517578Z" class="" fill="#ffffff" fill-opacity="1"></path><path d="M321.70001220703125 153.3000030517578L332.5 167.6999969482422L299.5 192.1999969482422L288.70001220703125 177.8000030517578Z" class="" fill="#ffffff" fill-opacity="1"></path><path d="M164.6999969482422 187.3000030517578L167.3000030517578 205.10000610351562L121.69999694824219 212L119.0999984741211 194.1999969482422Z" class="" fill="#ffffff" fill-opacity="1"></path><path d="M256 190.89999389648438C273.79998779296875 190.89999389648438 290 194.10000610351562 302.5 200C315 205.8000030517578 325.3999938964844 215 325.3999938964844 228C325.3999938964844 241 315 250.1999969482422 302.5 256C290 261.8999938964844 273.79998779296875 265.1000061035156 256 265.1000061035156C238.1999969482422 265.1000061035156 222 261.8999938964844 209.5 256C197 250.1999969482422 186.60000610351562 241 186.60000610351562 228C186.60000610351562 215 197 205.8000030517578 209.5 200C222 194.10000610351562 238.1999969482422 190.89999389648438 256 190.89999389648438Z" class="" fill="#ffffff" fill-opacity="1"></path><path d="M402.20001220703125 196.5L406.79998779296875 213.89999389648438L359.6000061035156 226.10000610351562L355 208.6999969482422Z" class="" fill="#ffffff" fill-opacity="1"></path><path d="M256 208.89999389648438C240.39999389648438 208.89999389648438 226.39999389648438 211.89999389648438 217.10000610351562 216.3000030517578C207.6999969482422 220.60000610351562 204.60000610351562 225.5 204.60000610351562 228C204.60000610351562 230.5 207.6999969482422 235.39999389648438 217.10000610351562 239.6999969482422C226.39999389648438 244.10000610351562 240.39999389648438 247.10000610351562 256 247.10000610351562C271.6000061035156 247.10000610351562 285.6000061035156 244.10000610351562 294.8999938964844 239.6999969482422C304.29998779296875 235.39999389648438 307.3999938964844 230.5 307.3999938964844 228C307.3999938964844 225.5 304.29998779296875 220.60000610351562 294.8999938964844 216.3000030517578C285.6000061035156 211.89999389648438 271.6000061035156 208.89999389648438 256 208.89999389648438Z" class="" fill="#ffffff" fill-opacity="1"></path><path d="M61.560001373291016 226.89999389648438L101.30000305175781 242.3000030517578L94.80000305175781 259.1000061035156L55.060001373291016 243.6999969482422Z" class="" fill="#ffffff" fill-opacity="1"></path><path d="M29.559999465942383 286.79998779296875C38.619998931884766 322.3999938964844 60.75 351.5 92.11000061035156 373.70001220703125C133.8000030517578 403.1000061035156 192.10000610351562 419.70001220703125 256 419.70001220703125C319.8999938964844 419.70001220703125 378.20001220703125 403.1000061035156 419.8999938964844 373.70001220703125C441 358.79998779296875 458 340.70001220703125 469.5 319.5C467.5 320.3999938964844 465.3999938964844 321.1000061035156 463.20001220703125 321.5C451.70001220703125 323.8999938964844 442.79998779296875 317.5 436.20001220703125 313.29998779296875C429.5 309.20001220703125 425 307.1000061035156 422.5 307.70001220703125C415.29998779296875 309.29998779296875 409.1000061035156 317.3999938964844 401.8999938964844 328.5C394.6000061035156 339.5 386.29998779296875 353.5 370.1000061035156 357.1000061035156C354.8999938964844 360.5 342.1000061035156 352.70001220703125 331.3999938964844 346.3999938964844C320.79998779296875 340.1000061035156 311.8999938964844 335.3999938964844 304.79998779296875 336.29998779296875C288 341.29998779296875 275.6000061035156 354.6000061035156 265.8999938964844 364.6000061035156C259.1000061035156 371.70001220703125 252.10000610351562 378.8999938964844 243.8000030517578 384.3999938964844C235.5 389.8999938964844 225.5 393.6000061035156 214.3000030517578 392.6000061035156C187.5 387.70001220703125 175.10000610351562 367.70001220703125 162.6999969482422 347.6000061035156C150.39999389648438 327.8999938964844 139.1999969482422 310.79998779296875 124.0999984741211 307.70001220703125C105.4000015258789 310.70001220703125 92.4800033569336 332.1000061035156 72.36000061035156 326.6000061035156C53.93000030517578 321.20001220703125 40.349998474121094 304.1000061035156 29.559999465942383 286.79998779296875Z" class="selected" fill="#ffffff" fill-opacity="1"></path><path d="M253.1999969482422 289.6000061035156L255.8000030517578 307.3999938964844L205.39999389648438 314.79998779296875L202.8000030517578 297Z" class="" fill="#ffffff" fill-opacity="1"></path></g></g></svg>