<svg style="height: 512px; width: 512px;" xmlns="http://www.w3.org/2000/svg" viewBox="0 0 512 512"><path d="M0 0h512v512H0z" fill="#000000" fill-opacity="0.01"></path><g class="" style="" transform="translate(1,11)"><g><path d="M166.39999389648438 25.639999389648438L153.60000610351562 38.36000061035156L313.6000061035156 198.39999389648438L326.3999938964844 185.60000610351562L166.39999389648438 25.639999389648438Z" class="" fill="#c1e7fe" fill-opacity="1"></path><path d="M134.39999389648438 121.5999984741211L128 128L121.5999984741211 134.39999389648438L281.6000061035156 294.3999938964844L294.3999938964844 281.6000061035156L134.39999389648438 121.5999984741211Z" class="" fill="#c1e7fe" fill-opacity="1"></path><path d="M38.31999969482422 153.60000610351562L25.600000381469727 166.39999389648438L185.60000610351562 326.3999938964844L198.39999389648438 313.6000061035156L38.31999969482422 153.60000610351562Z" class="selected" fill="#c1e7fe" fill-opacity="1"></path><path d="M353.1000061035156 240.1999969482422L323.70001220703125 324.29998779296875L238.3000030517578 350.29998779296875L309.29998779296875 404.29998779296875L307.6000061035156 493.5L380.79998779296875 442.70001220703125L465.20001220703125 471.79998779296875L439.5 386.5L493.29998779296875 315.29998779296875L404.20001220703125 313.29998779296875L353.1000061035156 240.1999969482422Z" class="" fill="#fcee48" fill-opacity="1"></path></g></g></svg>