<svg width="512" height="512" viewBox="0 0 512 512" fill="none" xmlns="http://www.w3.org/2000/svg">
<path d="M256 29.5901C210.5 29.5901 164.3 48.7601 129.8 77.5001C97.4801 104.4 75.9201 139.4 73.2801 173.6C75.7601 174.2 78.2601 174.8 80.7601 175.4C142.5 189.6 204.1 196.3 265.8 195.5C264 191.3 263.2 186.6 264 181.7C265.6 172.8 272.2 166.3 279.8 162.8C287.4 159.2 296.6 158.1 305.9 159.8C306.3 159.9 306.7 160 307.2 160.1C306.9 159 306.8 157.8 306.6 156.7C305.2 147 306.6 137.8 310.5 130.1C314.4 122.5 321.4 116 330.4 114.8C339.4 113.5 347.9 117.8 353.7 124C359.1 130 362.9 137.7 364.5 146.6C364.7 146.3 365 146 365.2 145.7C371.4 138.1 379.1 132.9 387.4 130.5C395.6 128.1 405 128.8 412.1 134.6C419.2 140.3 421.9 149.4 421.3 157.9C420.7 165.2 418.1 172.5 413.5 179.2C415.7 178.7 418 178.3 420.2 177.8C421.9 177.5 423.6 177.1 425.3 176.7C426.4 176.5 427.6 176.2 428.7 176C432 175.2 435.4 174.4 438.7 173.6C436.1 139.4 414.5 104.4 382.2 77.5001C347.7 48.7601 301.5 29.5901 256 29.5901ZM333.7 132.5C333.5 132.5 333.2 132.6 332.9 132.6C330.7 132.9 328.5 134.4 326.5 138.2C324.6 142.1 323.5 147.8 324.4 154.2C325.1 159.3 327 163.8 329.3 167C334.4 163.9 340.2 162.1 346.5 162C347.2 158.8 347.5 154.9 347 151C346.1 144.7 343.4 139.5 340.6 136.3C338 133.5 335.7 132.5 333.7 132.5ZM396.4 147.1C395.2 147.1 393.9 147.3 392.3 147.7C388.2 149 383.2 152.1 379.2 157.1C375.2 162 373.2 167.5 372.8 171.8V173.1C375.1 175.5 377.1 178.3 378.7 181.3C380.1 181.5 381.8 181.3 383.9 180.7C387.9 179.5 393 176.3 396.9 171.4C401 166.4 402.9 161 403.3 156.7C403.6 152.4 402.5 149.9 400.8 148.5C399.7 147.7 398.3 147.1 396.4 147.1ZM298.4 177.1C294.1 177 290.2 177.8 287.4 179C283.6 180.8 282.1 182.9 281.8 184.9C281.4 186.8 282.1 189.3 285 192.2C287.9 195.1 292.9 197.9 298.9 199C303.3 199.8 307.6 199.5 311 198.6C311.2 193 312.6 187.6 314.9 182.8C311.9 180.5 307.7 178.4 302.8 177.5C301.3 177.3 299.8 177.1 298.4 177.1ZM347.2 180C337.4 180 329 188.5 329 199.8C329 211.1 337.4 219.6 347.2 219.6C357 219.6 365.4 211.1 365.4 199.8C365.4 188.5 357 180 347.2 180ZM68.7601 191C62.1801 203.8 41.5401 242.2 16.6101 271.6C180.9 314.1 331.1 314.1 495.4 271.6C470.5 242.2 449.8 203.8 443.2 191C438.3 192.2 433.4 193.3 428.6 194.4C433 199.7 435.7 206.4 434.8 213.7C433.8 222.7 427.6 229.9 420.1 233.9C412.5 238 403.4 239.7 393.6 238.6C390.7 238.3 388 237.8 385.3 237C386.1 239.8 386.8 242.7 387.1 245.8C388.2 255.6 386.5 264.7 382.4 272.3C378.3 279.8 371.1 286 362.1 287C353 288 344.7 283.5 339 277.1C334.2 271.5 330.8 264.5 329.2 256.5C322.2 263.3 313.8 267.5 305.3 268.9C296.9 270.2 287.6 268.3 281.3 261.8C275 255.2 273.4 245.9 275.1 237.5C276.8 229.3 281.2 221.3 287.9 214.6C286.5 214.1 285.2 213.6 283.9 213C212.2 215.5 140.4 208.2 68.7601 191ZM393.8 197.9C389.8 198 386.2 198.9 383.4 200.1C383.3 205.2 382.3 210.1 380.5 214.6L380.7 214.8C384 217.5 389.4 220.1 395.6 220.8C402 221.5 407.7 220.2 411.5 218.2C415.3 216.1 416.7 213.8 417 211.7C417.2 209.5 416.3 207 413.1 204.1C409.8 201.3 404.5 198.8 398.1 198.1C397.3 198 396.6 198 395.8 197.9H393.8ZM316.3 219.4C315.9 219.4 315.4 219.4 315 219.5C310.8 220.2 305.5 222.7 300.9 227.1C296.3 231.5 293.6 236.7 292.7 240.9C291.9 245.2 292.8 247.7 294.3 249.3C295.8 250.9 298.3 251.8 302.6 251.1C306.8 250.4 312.1 247.9 316.7 243.5C321.3 239.1 324 233.9 324.9 229.7V229.5C321.5 226.7 318.5 223.3 316.3 219.4ZM363.6 233.5C358.9 236 353.5 237.5 347.8 237.6C346.6 241.1 346 245.6 346.5 250.3C347.2 256.7 349.7 262 352.5 265.3C355.4 268.5 357.9 269.4 360.1 269.2C362.3 268.9 364.5 267.5 366.6 263.7C368.6 259.9 369.9 254.2 369.2 247.8C368.5 241.9 366.3 236.8 363.6 233.5ZM148 315C155.4 367.7 165.9 406.2 178.6 433.1C187.8 452.8 198.2 466.5 210.2 474.6C222.3 482.7 236.3 484.4 249 480.2C274.4 471.8 295 444 311.4 405.9C322.3 380.8 331 350.8 336.6 317.9C330.4 318.5 324.3 318.9 318.1 319.4C312.7 349.2 304.6 376.3 294.9 398.8C279.5 434.6 259.5 457.8 243.4 463.1C235.3 465.8 228.4 465.1 220.3 459.7C212.2 454.2 203.2 443.3 194.9 425.5C183.7 401.9 173.8 366.3 166.5 317.1C160.4 316.4 154.2 315.8 148 315Z" fill="white"/>
</svg>
