<svg width="512" height="512" viewBox="0 0 512 512" fill="none" xmlns="http://www.w3.org/2000/svg">
<g clip-path="url(#clip0_3_2)">
<path d="M39.557 19L323.44 273H472.443L188.56 19H39.557ZM25 30.13V55.977L311 311.87V286.024L25 30.13ZM89 137.393V171.977L375 427.87V343.027L311 330.025L89 137.393ZM77.555 185.89L34.655 196.613L322.445 454.111L365.345 443.388L77.555 185.89ZM25 212.13V235.977L311 491.87V468.023L25 212.13ZM329 291V312.973L393 328.973V455.027L329 471.027V493H487V471.027L423 455.027V328.973L487 312.973V291H329ZM441 426.865V440.973L462.88 446.443L441 426.865Z" fill="white"/>
</g>
<defs>
<clipPath id="clip0_3_2">
<rect width="512" height="512" fill="white"/>
</clipPath>
</defs>
</svg>
