<svg width="470" height="335" viewBox="0 0 470 335" fill="none" xmlns="http://www.w3.org/2000/svg">
<path d="M301.961 0.000999451L41.145 139.034L0 248.974L7.233 252.824L160.906 334.624L469.401 170.409L431.649 70.506L301.961 0.000999451ZM420.996 95.188L446.106 161.638L343.546 216.232L410.103 100.957L420.996 95.187V95.188ZM331.42 142.605L264.67 258.217L223 280.399L295.195 161.779L331.42 142.605ZM52.093 163.097L80.303 178.03L26.291 232.042L52.093 163.097ZM262.92 178.864L190.903 297.187L191.163 297.347L173.955 306.507L179.75 222.889L262.92 178.864ZM97.586 187.176L114.549 196.156L54.104 256.601L37.174 247.589L97.587 187.175L97.586 187.176ZM161.133 221.217L154.959 310.287L100.859 281.489L161.133 221.217Z" fill="white"/>
</svg>
