<svg width="512" height="512" viewBox="0 0 512 512" fill="none" xmlns="http://www.w3.org/2000/svg">
<path d="M174.688 61.094L144.155 78.72C204.298 150.605 316.011 148.267 366.935 78.72L336.405 61.094C324.945 84.584 292.835 101.719 255.249 101.719C217.663 101.719 186.149 84.582 174.686 61.093L174.688 61.094ZM383.188 88.094C378.118 95.23 372.531 101.769 366.468 107.688L385.438 142.031L407.468 102.126L383.188 88.096V88.094ZM127.75 88.188L53.937 130.81L120.813 243.185L154.687 223.529L151.907 286.124L164.437 308.78L185.187 271.22L169.812 243.406L186.156 234.376L208.936 275.594L231.686 234.374L248.031 243.406L217.095 299.406L208.939 314.219L200.751 299.405L195.845 290.53L172.595 332.594L164.407 347.406L156.251 332.594L150.313 321.874L146.813 400.812H228.783L200.251 349.125L216.626 340.095L239.376 381.312L262.126 340.094L262.656 340.374L248.782 315.281L265.127 306.251L287.877 347.471L310.657 306.251L312 307L297.28 280.344L313.656 271.314L336.406 312.5L359.126 271.375L357 223.53L390 242.687L456.72 130.531L423.687 111.471L393.625 165.876L385.437 180.689L377.25 165.876L370.812 154.22L345.094 200.813L336.906 215.625L328.75 200.812L322 188.594L296.562 234.656L288.406 249.469L280.219 234.655L249.279 178.655L265.655 169.625L288.405 210.811L311.155 169.624L311.718 169.937L298.154 145.374C268.487 152.82 236.449 151.812 206.467 142.186L180.653 188.936L172.466 203.749L164.276 188.936L158.652 178.718L138.402 215.342L130.215 230.154L122.058 215.342L91.12 159.342L107.464 150.312L130.244 191.529L147.964 159.405L133.369 132.935L149.713 123.905L169.273 159.311L169.337 159.343L169.307 159.373L172.462 165.093L188.836 135.437C165.918 125.112 144.821 109.39 127.742 88.187L127.75 88.188ZM351.97 120.062C340.99 128.248 328.975 134.785 316.312 139.656L336.937 176.969L359.687 135.749L361.031 136.499L351.971 120.061L351.97 120.062ZM472.906 139.875L406.156 252.063L429.062 265.343L493.875 152L472.905 139.875H472.906ZM37.75 140.155L17.22 152L82.625 265.344L104.625 252.564L37.75 140.155ZM360.72 307.187L344.594 336.375L336.406 351.188L328.219 336.375L321.779 324.719L296.062 371.279L287.874 386.093L279.718 371.28L272.968 359.063L249.935 400.813H364.873L360.717 307.188L360.72 307.187ZM146 419.5L144.78 446.75H366.906L365.686 419.5H239.626L239.376 419.97L239.126 419.5H146Z" fill="white"/>
</svg>
