<svg width="512" height="512" viewBox="0 0 512 512" fill="none" xmlns="http://www.w3.org/2000/svg">
<path d="M24.68 24.6801C21.145 28.2171 18.83 34.4591 18.83 40.9441C18.83 45.3341 19.953 49.5441 21.735 52.9471L45.145 45.1441L52.947 21.7351C49.544 19.9531 45.335 18.8311 40.944 18.8311C34.459 18.8311 28.217 21.1451 24.681 24.6811L24.68 24.6801ZM41.813 65.2251L84.49 105.82C87.43 101.337 90.45 97.5031 93.976 93.9771C97.502 90.4521 101.336 87.4311 105.819 84.4911L65.226 41.8141L59.372 59.3721L41.813 65.2251ZM106.705 106.705C103.638 109.772 100.887 113.468 97.833 118.511L175.279 192.178C177.924 188.871 180.493 185.962 183.227 183.228C185.962 180.493 188.871 177.924 192.178 175.279L118.511 97.8331C113.468 100.887 109.772 103.638 106.705 106.705ZM195.646 195.645C186.532 204.76 178.566 218.092 159.976 246.243L171.068 257.335C205.228 205.715 205.715 205.229 257.335 171.068L246.243 159.976C218.093 178.566 204.76 186.531 195.646 195.645ZM219.688 219.688C215.69 223.685 212.111 228.228 207.83 234.349L450.695 471.933L493.169 493.169L471.933 450.695L234.349 207.83C228.229 212.111 223.685 215.69 219.688 219.688Z" fill="white"/>
</svg>
