<svg width="512" height="512" viewBox="0 0 512 512" fill="none" xmlns="http://www.w3.org/2000/svg">
<path d="M258.375 21.1559C213.818 21.3429 171.135 28.5319 139.812 42.1559L138.032 58.2499H163.687V76.9379H136L133.875 96.3439H163.688V115.031H131.813L93.093 467.907L216.437 492.72L250.594 229.875H236.688V132.126H220.94V115.03H182.378V96.3449H220.941V76.9379H182.378V58.2499H220.941V41.5299H311.879V58.2499H344.909V76.9379H311.879V96.3439H344.909V115.031H311.879V132.126H255.38V211.189H282.786V229.876H271.226L305.476 493.626H305.693L434.756 467.346L396.036 115.032H363.6V96.3449H394L391.844 76.9389H363.594V58.2499H389.814L388.031 42.1559C349.334 27.8479 302.933 20.9859 258.376 21.1559H258.375ZM239.625 60.2189V77.6869H274.563V96.3739H239.625V113.437H293.188V60.2169H239.625V60.2189Z" fill="white"/>
</svg>
