<svg style="height: 512px; width: 512px;" xmlns="http://www.w3.org/2000/svg" viewBox="0 0 512 512"><path d="M0 0h512v512H0z" fill="#000000" fill-opacity="0.01"></path><g class="" style="" transform="translate(0,0)"><g><path d="M374.68798828125 33.779998779296875C333.93499755859375 33.529998779296875 292.2130126953125 55.00600051879883 265.4679870605469 105.56199645996094L257.56201171875 120.5L249.093994140625 105.84400177001953C216.4510040283203 49.215999603271484 157.57400512695312 28.215999603271484 107.68800354003906 38.03099822998047C57.80099868774414 47.847999572753906 17.09000015258789 87.07499694824219 19.309999465942383 157.12600708007812C20.586000442504883 197.35800170898438 38.19599914550781 229.44000244140625 64.18599700927734 259.1889953613281C71.61100006103516 240.0260009765625 77.0459976196289 218.39500427246094 80.40399932861328 194.34500122070312L80.43399810791016 194.15699768066406L80.46700286865234 193.93699645996094C83.73699951171875 176.35699462890625 96.5999984741211 165.48699951171875 109.87200164794922 164.6269989013672C111.76799774169922 164.5030059814453 113.6719970703125 164.58099365234375 115.55999755859375 164.8769989013672C130.42999267578125 167.1999969482422 142.66799926757812 182.2989959716797 140.2779998779297 201.47000122070312L140.2779998779297 201.52999877929688L140.2480010986328 201.593994140625C135.05299377441406 238.78399658203125 124.83999633789062 273.3940124511719 109.52799987792969 303.718994140625C113.08000183105469 306.87298583984375 116.66799926757812 310.03900146484375 120.30999755859375 313.218994140625C122.6259994506836 315.23699951171875 125.02999877929688 317.281005859375 127.37300109863281 319.3110046386719C137.39100646972656 316.8630065917969 148.2570037841797 313.18798828125 159.68600463867188 308.4989929199219C160.11900329589844 309.1960144042969 160.56100463867188 309.8940124511719 161.0290069580078 310.5929870605469L170.65499877929688 324.9679870605469C161.7949981689453 328.6579895019531 153.11300659179688 331.8160095214844 144.68499755859375 334.3420104980469C187.16700744628906 371.2969970703125 230.90499877929688 411.7489929199219 257.43499755859375 466.77899169921875C274.3169860839844 433.54400634765625 297.6050109863281 406.1109924316406 322.93701171875 381.6549987792969C321.0820007324219 380.17498779296875 319.4129943847656 378.4750061035156 317.9670104980469 376.5929870605469C309.9469909667969 366.135986328125 310.29901123046875 352.16900634765625 315.2489929199219 339.5929870605469C320.1990051269531 327.0169982910156 329.7619934082031 314.78900146484375 342.81201171875 304.7799987792969C355.86199951171875 294.7720031738281 370.1319885253906 288.739990234375 383.56201171875 287.2200012207031C386.91900634765625 286.8399963378906 390.2749938964844 286.7439880371094 393.56201171875 287C403.302001953125 287.760009765625 412.3580017089844 291.5050048828125 418.3739929199219 299.156005859375C437.593994140625 281.9460144042969 454.75201416015625 264.47601318359375 467.7799987792969 245.531005859375C485.1820068359375 220.2310028076172 495.4620056152344 192.54100036621094 494.375 157.68800354003906C492.9490051269531 111.96299743652344 472.3479919433594 77.25800323486328 443.468994140625 56.375999450683594C442.1990051269531 67.052001953125 438.8370056152344 78.14600372314453 433.8429870605469 89.53199768066406C433.76800537109375 89.48200225830078 433.6990051269531 89.427001953125 433.62298583984375 89.37699890136719L417.7489929199219 78.84700012207031C422.8269958496094 66.39199829101562 425.468994140625 55.08700180053711 425.31201171875 45.59700012207031C418.02801513671875 42.082000732421875 410.406005859375 39.31700134277344 402.56201171875 37.34700012207031C393.4580078125 35.06700134277344 384.0920104980469 33.840999603271484 374.68701171875 33.78300094604492Z" class="" fill="#417505" fill-opacity="1"></path><path d="M388.343994140625 86.90599822998047C392.1300048828125 86.86000061035156 398.3739929199219 88.45800018310547 406.218994140625 93.65599822998047L423.3110046386719 104.96900177001953C435.9670104980469 113.35600280761719 435.8110046386719 121.63200378417969 434.281005859375 124.2490005493164C433.5150146484375 125.55699920654297 432.4809875488281 126.58200073242188 429.1549987792969 126.7490005493164C425.8299865722656 126.91600036621094 420.1520080566406 125.64600372314453 412.8110046386719 120.77899932861328L395.7489929199219 109.46900177001953C388.4989929199219 104.66300201416016 384.66900634765625 99.64399719238281 383.1239929199219 95.93699645996094C381.5790100097656 92.22899627685547 382.1210021972656 90.19499969482422 382.7799987792969 89.1240005493164C383.44000244140625 88.05400085449219 384.5580139160156 86.9520034790039 388.343994140625 86.90399932861328Z" class="" fill="#910214" fill-opacity="1"></path><path d="M113.31300354003906 124.47000122070312C135.0749969482422 124.64399719238281 156.22799682617188 135.93299865722656 167.875 155.97000122070312C184.3730010986328 184.35000610351562 175.96200561523438 220.44200134277344 149.56199645996094 239L155.93699645996094 200.156005859375C159.2949981689453 188.91299438476562 158.1300048828125 176.3730010986328 151.718994140625 165.343994140625C143.9709930419922 152.01699829101562 130.39500427246094 144.18099975585938 116.06199645996094 143.18800354003906C114.9800033569336 143.11700439453125 113.89600372314453 143.08599853515625 112.81199645996094 143.093994140625C105.24199676513672 143.11700439453125 97.58999633789062 145.04600524902344 90.52999877929688 149.093994140625C77.677001953125 156.46400451660156 69.9000015258789 169.0500030517578 68.375 182.531005859375L60.154998779296875 222.50100708007812C59.4010009765625 221.38900756835938 58.68199920654297 220.2530059814453 58 219.09500122070312C40.5099983215332 189.00999450683594 50.97200012207031 150.22000122070312 81.22000122070312 132.875C90.66999816894531 127.45500183105469 100.99299621582031 124.75499725341797 111.22000122070312 124.5009994506836C111.9219970703125 124.48300170898438 112.61000061035156 124.46399688720703 113.31300354003906 124.47100067138672Z" class="" fill="#4a4a4a" fill-opacity="1"></path><path d="M389.25 127.625L402.5 136.375C403.30499267578125 136.90899658203125 404.10699462890625 137.38800048828125 404.906005859375 137.875C397.3810119628906 148.11199951171875 388.9809875488281 158.4250030517578 379.8760070800781 168.718994140625L366.031005859375 156.15499877929688C374.4989929199219 146.572998046875 382.3009948730469 137.02000427246094 389.2510070800781 127.625Z" class="" fill="#910214" fill-opacity="1"></path><path d="M333.68701171875 159.81300354003906C334.34698486328125 159.7830047607422 335.125 159.83799743652344 336.06201171875 159.968994140625C339.81201171875 160.49099731445312 345.7460021972656 162.99200439453125 352.718994140625 169.31199645996094L355.4049987792969 171.74899291992188L367.9049987792969 183.09300231933594C379.1549987792969 193.28900146484375 377.75 201.4530029296875 375.8429870605469 203.81300354003906C374.8890075683594 204.99000549316406 373.7179870605469 205.83299255371094 370.4049987792969 205.49899291992188C367.0929870605469 205.16400146484375 361.6809997558594 203.06900024414062 355.1549987792969 197.15499877929688L339.9679870605469 183.40499877929688C333.52301025390625 177.56500244140625 330.49798583984375 172.02200317382812 329.52801513671875 168.125C328.5580139160156 164.22500610351562 329.40301513671875 162.30299377441406 330.2179870605469 161.34300231933594C330.8280029296875 160.6230010986328 331.7049865722656 159.89999389648438 333.68499755859375 159.81300354003906Z" class="" fill="#910214" fill-opacity="1"></path><path d="M110.77999877929688 183.18800354003906C106.18299865722656 183.22000122070312 100.9280014038086 186.14300537109375 98.84400177001953 197.343994140625C89.20999908447266 265.7760009765625 62.80400085449219 318.5140075683594 19.81399917602539 350.593994140625L19.812000274658203 377.156005859375C76.5999984741211 342.2799987792969 110.697998046875 278.135986328125 121.75 199C123.072998046875 187.9239959716797 117.83699798583984 184.1479949951172 112.68699645996094 183.343994140625C112.06700134277344 183.2469940185547 111.43699645996094 183.1840057373047 110.78099822998047 183.18800354003906Z" class="" fill="#c9c9c9" fill-opacity="1"></path><path d="M326.5950012207031 196.5C326.864990234375 196.7519989013672 327.1310119628906 197 327.4070129394531 197.25L340.4700012207031 209.06300354003906C333.114990234375 215.9510040283203 325.6130065917969 222.6820068359375 317.9700012207031 229.25C314.5669860839844 232.1649932861328 311.1390075683594 235.0500030517578 307.68701171875 237.906005859375L295.4700012207031 223.77999877929688C298.95001220703125 220.91799926757812 302.40301513671875 218.02000427246094 305.81201171875 215.093994140625C312.8659973144531 209.03900146484375 319.7950134277344 202.83999633789062 326.593994140625 196.5Z" class="" fill="#910214" fill-opacity="1"></path><path d="M262.0320129394531 223.56300354003906C262.8580017089844 223.52999877929688 263.9119873046875 223.66700744628906 265.2820129394531 224.031005859375C268.9419860839844 225.0030059814453 274.55999755859375 228.2010040283203 280.72198486328125 235.31300354003906L294.12701416015625 250.7830047607422C304.0669860839844 262.2590026855469 301.7099914550781 270.2030029296875 299.5329895019531 272.31298828125C298.4460144042969 273.3680114746094 297.1570129394531 274.0769958496094 293.90899658203125 273.3450012207031C290.6610107421875 272.6130065917969 285.54901123046875 269.875 279.78399658203125 263.2200012207031L266.3479919433594 247.75C260.65399169921875 241.17599487304688 258.34100341796875 235.3300018310547 257.8479919433594 231.343994140625C257.35400390625 227.35699462890625 258.42498779296875 225.51100158691406 259.3479919433594 224.656005859375C259.8080139160156 224.22900390625 260.3710021972656 223.83099365234375 261.2850036621094 223.656005859375C261.5150146484375 223.61300659179688 261.760986328125 223.572998046875 262.0350036621094 223.56199645996094Z" class="" fill="#910214" fill-opacity="1"></path><path d="M250.4080047607422 257.781005859375C250.9980010986328 258.52301025390625 251.60299682617188 259.25299072265625 252.2209930419922 259.97100830078125L262.9070129394531 272.281005859375C249.05299377441406 282.072998046875 235.08299255371094 291.1759948730469 221.22000122070312 299.3450012207031C220.60699462890625 298.2929992675781 219.9600067138672 297.260986328125 219.27999877929688 296.2510070800781L210.47000122070312 283.1260070800781C223.65699768066406 275.4859924316406 237.0679931640625 266.9830017089844 250.406005859375 257.7820129394531Z" class="" fill="#910214" fill-opacity="1"></path><path d="M174.5 275.69000244140625C175.42799377441406 275.6300048828125 176.6820068359375 275.82598876953125 178.43800354003906 276.5329895019531C181.947998046875 277.9490051269531 187.1060028076172 281.80999755859375 192.343994140625 289.62799072265625L203.75 306.6579895019531C212.1999969482422 319.27301025390625 208.88999938964844 326.864990234375 206.47000122070312 328.6910095214844C205.25999450683594 329.6029968261719 203.88400268554688 330.1289978027344 200.75 329.00299072265625C197.61599731445312 327.87701416015625 192.8699951171875 324.5379943847656 187.97000122070312 317.2229919433594L176.56300354003906 300.2229919433594C171.72300720214844 292.9960021972656 170.15499877929688 286.8949890136719 170.156005859375 282.87799072265625C170.1580047607422 278.8609924316406 171.41600036621094 277.17498779296875 172.43600463867188 276.44000244140625C173.03500366210938 275.99200439453125 173.7530059814453 275.7309875488281 174.5 275.69000244140625Z" class="" fill="#910214" fill-opacity="1"></path><path d="M388.9700012207031 305.5329895019531C387.9100036621094 305.56298828125 386.81298828125 305.65301513671875 385.656005859375 305.7829895019531C376.39898681640625 306.8330078125 364.82598876953125 311.4679870605469 354.1860046386719 319.62799072265625C343.5480041503906 327.7879943847656 336.0679931640625 337.7720031738281 332.656005859375 346.4410095214844C329.2439880371094 355.1090087890625 329.9010009765625 361.4259948730469 332.81201171875 365.22100830078125C335.7239990234375 369.0169982910156 341.6180114746094 371.2690124511719 350.875 370.22100830078125C352.8009948730469 370.0039978027344 354.8389892578125 369.6210021972656 356.93798828125 369.09698486328125C353.875 360.61700439453125 354.35198974609375 351.97698974609375 357.9679870605469 345.09698486328125C363.4739990234375 334.62298583984375 374.68798828125 328.364990234375 386.68798828125 328.72198486328125C392.0580139160156 328.8800048828125 397.33099365234375 330.54901123046875 402.156005859375 333.4389953613281C402.8009948730469 332.1759948730469 403.385009765625 330.88299560546875 403.906005859375 329.5639953613281C407.3179931640625 320.8940124511719 406.6610107421875 314.6099853515625 403.75 310.8139953613281C401.5669860839844 307.968994140625 397.7080078125 305.9679870605469 392 305.59600830078125C390.9909973144531 305.52801513671875 389.9800109863281 305.5069885253906 388.9700012207031 305.5329895019531Z" class="selected" fill="#4a4a4a" fill-opacity="1"></path><path d="M385.18701171875 347.40899658203125C380.5639953613281 347.6189880371094 376.3219909667969 350.3789978027344 374.531005859375 353.78399658203125C372.6340026855469 357.3970031738281 372.0039978027344 361.9289855957031 378.5950012207031 369.4739990234375C405.8169860839844 398.0589904785156 448.3299865722656 423.364013671875 494.875 433.7539978027344L494.875 408.2539978027344C455.572998046875 397.72601318359375 418.9580078125 376.0539855957031 396.375 352.4100036621094C392.68499755859375 348.7980041503906 389.2049865722656 347.50201416015625 386.125 347.4100036621094C385.81500244140625 347.3999938964844 385.49700927734375 347.39599609375 385.18798828125 347.4100036621094Z" class="" fill="#c9c9c9" fill-opacity="1"></path></g></g></svg>