<svg style="height: 512px; width: 512px;" xmlns="http://www.w3.org/2000/svg" viewBox="0 0 512 512"><path d="M0 0h512v512H0z" fill="#000000" fill-opacity="0.01"></path><g class="" style="" transform="translate(-1,29)"><g transform="translate(0, 0) scale(1, 1) rotate(-90, 256, 256) skewX(0) skewY(0)"><path d="M24.68000030517578 24.68000030517578C21.145000457763672 28.216999053955078 18.829999923706055 34.45899963378906 18.829999923706055 40.944000244140625C18.829999923706055 45.33399963378906 19.952999114990234 49.54399871826172 21.735000610351562 52.946998596191406L45.14500045776367 45.14400100708008L52.946998596191406 21.735000610351562C49.54399871826172 19.952999114990234 45.334999084472656 18.83099937438965 40.944000244140625 18.83099937438965C34.45899963378906 18.83099937438965 28.216999053955078 21.145000457763672 24.680999755859375 24.680999755859375Z" class="" fill="#8b572a" fill-opacity="1"></path><path d="M41.8129997253418 65.2249984741211L84.48999786376953 105.81999969482422C87.43000030517578 101.33699798583984 90.44999694824219 97.50299835205078 93.97599792480469 93.97699737548828C97.50199890136719 90.4520034790039 101.33599853515625 87.43099975585938 105.81900024414062 84.49099731445312L65.22599792480469 41.81399917602539L59.37200164794922 59.37200164794922Z" class="" fill="#b57204" fill-opacity="1"></path><path d="M106.70500183105469 106.70500183105469C103.63800048828125 109.77200317382812 100.88700103759766 113.46800231933594 97.83300018310547 118.51100158691406L175.2790069580078 192.17799377441406C177.9239959716797 188.87100219726562 180.4929962158203 185.96200561523438 183.2270050048828 183.22799682617188C185.96200561523438 180.4929962158203 188.87100219726562 177.9239959716797 192.17799377441406 175.2790069580078L118.51100158691406 97.83300018310547C113.46800231933594 100.88700103759766 109.77200317382812 103.63800048828125 106.70500183105469 106.70500183105469Z" class="" fill="#b57204" fill-opacity="1"></path><path d="M195.64599609375 195.64500427246094C186.53199768066406 204.75999450683594 178.5659942626953 218.0919952392578 159.9759979248047 246.2429962158203L171.0679931640625 257.3349914550781C205.22799682617188 205.71499633789062 205.71499633789062 205.22900390625 257.3349914550781 171.0679931640625L246.2429962158203 159.9759979248047C218.09300231933594 178.5659942626953 204.75999450683594 186.53199768066406 195.64599609375 195.64599609375Z" class="" fill="#9b9b9b" fill-opacity="1"></path><path d="M219.68800354003906 219.68800354003906C215.69000244140625 223.68499755859375 212.11099243164062 228.22799682617188 207.8300018310547 234.3489990234375L450.69500732421875 471.9330139160156L493.16900634765625 493.16900634765625L471.9330139160156 450.69500732421875L234.3489990234375 207.8300018310547C228.22900390625 212.11099243164062 223.68499755859375 215.69000244140625 219.68800354003906 219.68800354003906Z" class="selected" fill="#b2cad6" fill-opacity="1"></path></g></g></svg>