<svg style="height: 512px; width: 512px;" xmlns="http://www.w3.org/2000/svg" viewBox="0 0 512 512"><path d="M0 0h512v512H0z" fill="#000000" fill-opacity="0.01"></path><g class="" style="" transform="translate(1,11)"><g><path d="M246.31300354003906 24.562999725341797L180.18800354003906 158.34300231933594L222.25 216C231.34500122070312 208.17999267578125 239.3820037841797 198.75999450683594 246.31300354003906 187.5L246.31300354003906 24.562000274658203Z" class="" fill="#48baff" fill-opacity="1"></path><path d="M265 25.187999725341797L265 187.593994140625C271.3699951171875 199.05999755859375 279.1759948730469 208.656005859375 288.375 216.593994140625L331 158.25L265 25.187000274658203Z" class="" fill="#4a90e2" fill-opacity="1"></path><path d="M164.18699645996094 168.093994140625L20.844999313354492 188.97000122070312L177.375 240.06300354003906C188.1269989013672 236.7949981689453 198.06199645996094 232.48599243164062 207.15699768066406 226.968994140625L164.18699645996094 168.09300231933594Z" class="" fill="#4a90e2" fill-opacity="1"></path><path d="M346.968994140625 168.093994140625L303.5929870605469 227.5C312.9360046386719 233.0070037841797 323.3580017089844 237.27699279785156 334.87298583984375 240.47000122070312L492.7489929199219 189.27999877929688L346.968994140625 168.093994140625Z" class="" fill="#48baff" fill-opacity="1"></path><path d="M255.43600463867188 201.93800354003906C237.4759979248047 227.89999389648438 213.05099487304688 244.83799743652344 184.18600463867188 254.156005859375C207.01100158691406 277.4410095214844 213.26100158691406 307.7179870605469 210.96800231933594 339.81201171875C241.08200073242188 326.91400146484375 271.5719909667969 330.43798828125 300.8420104980469 341.25C298.8190002441406 309.7200012207031 305.59698486328125 279.5450134277344 327.99798583984375 254.593994140625C297.3179931640625 245.4340057373047 272.3349914550781 228.24400329589844 255.43499755859375 201.93800354003906Z" class="" fill="#9013fe" fill-opacity="1"></path><path d="M13.25 206.15499877929688L119.97000122070312 310.1549987792969L188.906005859375 287.8110046386719C183.80599975585938 276.1929931640625 175.70599365234375 265.7869873046875 163.68600463867188 256.6860046386719L160.31199645996094 254.156005859375L13.25 206.156005859375Z" class="selected" fill="#48baff" fill-opacity="1"></path><path d="M495.406005859375 208.06100463867188L349.1860046386719 255.5L348.218994140625 256.343994140625C337.072998046875 266.1059875488281 329.28399658203125 276.64599609375 324.1239929199219 287.968994140625L391.4989929199219 309.9360046386719L495.4049987792969 208.06100463867188Z" class="" fill="#4a90e2" fill-opacity="1"></path><path d="M194.343994140625 305.6860046386719L125.6240005493164 327.9679870605469L99.90599822998047 474.7179870605469L128.718994140625 435.24798583984375L195.0290069580078 344.43499755859375C196.5469970703125 330.55499267578125 196.56100463867188 317.6050109863281 194.34300231933594 305.68499755859375Z" class="" fill="#4a90e2" fill-opacity="1"></path><path d="M318.25 305.6860046386719C315.5249938964844 318.1059875488281 315.239990234375 331.34600830078125 316.656005859375 345.406005859375L410.218994140625 473.656005859375L385.5610046386719 327.6239929199219L318.2489929199219 305.6860046386719Z" class="" fill="#48baff" fill-opacity="1"></path><path d="M246.31199645996094 346.906005859375C233.5019989013672 347.6780090332031 220.74200439453125 351.260986328125 207.843994140625 358.56201171875L143.81399536132812 446.2799987792969L116.90599822998047 483.125L246.31199645996094 415.31201171875L246.31199645996094 346.906005859375Z" class="" fill="#48baff" fill-opacity="1"></path><path d="M265 347.656005859375L265 415.37298583984375L394.625 483.9679870605469L303.375 358.87298583984375C290.322998046875 353.3800048828125 277.5849914550781 349.37298583984375 265 347.65301513671875Z" class="" fill="#4a90e2" fill-opacity="1"></path></g></g></svg>