<svg style="height: 512px; width: 512px;" xmlns="http://www.w3.org/2000/svg" viewBox="0 0 512 512"><path d="M0 0h512v512H0z" fill="#000000" fill-opacity="0.01"></path><g class="" style="" transform="translate(0,12)"><g><path d="M39.55699920654297 19L323.44000244140625 273L472.4429931640625 273L188.55999755859375 19L39.55799865722656 19Z" class="" fill="#73a4c2" fill-opacity="1"></path><path d="M25 30.1299991607666L25 55.97700119018555L311 311.8699951171875L311 286.02398681640625L25 30.1299991607666Z" class="" fill="#48748f" fill-opacity="1"></path><path d="M89 137.39300537109375L89 171.9770050048828L375 427.8699951171875L375 343.0270080566406L311 330.0249938964844L89 137.39300537109375Z" class="" fill="#34617e" fill-opacity="1"></path><path d="M77.55500030517578 185.88999938964844L34.654998779296875 196.61300659179688L322.44500732421875 454.1109924316406L365.3450012207031 443.38800048828125L77.55599975585938 185.88999938964844Z" class="" fill="#497591" fill-opacity="1"></path><path d="M25 212.1300048828125L25 235.9770050048828L311 491.8699951171875L311 468.02301025390625L25 212.1300048828125Z" class="" fill="#608fac" fill-opacity="1"></path><path d="M329 291L329 312.9729919433594L393 328.9729919433594L393 455.0270080566406L329 471.0270080566406L329 493L487 493L487 471.0270080566406L423 455.0270080566406L423 328.9729919433594L487 312.9729919433594L487 291L329 291Z" class="" fill="#608fac" fill-opacity="1"></path><path d="M441 426.864990234375L441 440.9729919433594L462.8800048828125 446.4429931640625L441 426.864990234375Z" class="selected" fill="#729fbb" fill-opacity="1"></path></g></g></svg>