<svg style="height: 512px; width: 512px;" xmlns="http://www.w3.org/2000/svg" viewBox="0 0 512 512"><path d="M0 0h512v512H0z" fill="#000000" fill-opacity="0.01"></path><g class="" style="" transform="translate(0,12)"><g><path d="M322.24798583984375 85.68399810791016L61.43199920654297 224.7169952392578L20.28700065612793 334.6570129394531L27.520000457763672 338.5069885253906L181.1929931640625 420.3070068359375L489.68798828125 256.0920104980469L451.9360046386719 156.18899536132812L322.24798583984375 85.68299865722656Z" class="" fill="#608fac" fill-opacity="1"></path><path d="M441.2829895019531 180.87100219726562L466.39300537109375 247.3209991455078L363.8330078125 301.9150085449219L430.3900146484375 186.63999938964844L441.2829895019531 180.8699951171875Z" class="" fill="#a8d3ee" fill-opacity="1"></path><path d="M351.7070007324219 228.28799438476562L284.9570007324219 343.8999938964844L243.28700256347656 366.0820007324219L315.48199462890625 247.46200561523438L351.7070007324219 228.28700256347656Z" class="selected" fill="#a8d3ee" fill-opacity="1"></path><path d="M72.37999725341797 248.77999877929688L100.58999633789062 263.7130126953125L46.577999114990234 317.7250061035156L72.37999725341797 248.77999877929688Z" class="" fill="#a8d3ee" fill-opacity="1"></path><path d="M283.2070007324219 264.5469970703125L211.19000244140625 382.8699951171875L211.4499969482422 383.0299987792969L194.24200439453125 392.19000244140625L200.03700256347656 308.5719909667969L283.2070007324219 264.5469970703125Z" class="" fill="#a8d3ee" fill-opacity="1"></path><path d="M117.87300109863281 272.8590087890625L134.83599853515625 281.8389892578125L74.39099884033203 342.28399658203125L57.46099853515625 333.2720031738281L117.8740005493164 272.8580017089844Z" class="" fill="#a8d3ee" fill-opacity="1"></path><path d="M181.4199981689453 306.8999938964844L175.24600219726562 395.9700012207031L121.14600372314453 367.1719970703125L181.4199981689453 306.8999938964844Z" class="" fill="#a8d3ee" fill-opacity="1"></path></g></g></svg>