<svg style="height: 512px; width: 512px;" xmlns="http://www.w3.org/2000/svg" viewBox="0 0 512 512"><path d="M0 0h512v512H0z" fill="#000000" fill-opacity="0.01"></path><g class="" style="" transform="translate(1,12)"><g><path d="M29.01799964904785 18.875C26.38800048828125 29.172000885009766 29.065000534057617 40.595001220703125 37.0620002746582 48.595001220703125C47.09700012207031 58.62900161743164 62.52199935913086 60.29100036621094 74.35199737548828 53.595001220703125C80.04100036621094 58.744998931884766 85.8280029296875 63.7859992980957 91.70899963378906 68.71499633789062C91.36399841308594 70.56099700927734 91.18900299072266 72.43399810791016 91.18699645996094 74.31199645996094C91.18699645996094 91.33599853515625 105.19499969482422 105.31199645996094 122.21700286865234 105.31199645996094C127.13400268554688 105.31199645996094 131.79299926757812 104.14199829101562 135.93699645996094 102.0719985961914C141.70599365234375 105.98699951171875 147.53399658203125 109.81400299072266 153.41900634765625 113.552001953125C152.9340057373047 115.7300033569336 152.68899536132812 117.95500183105469 152.68699645996094 120.18699645996094C152.68699645996094 137.21099853515625 166.69500732421875 151.18699645996094 183.7169952392578 151.18699645996094C191.29400634765625 151.18699645996094 198.26699829101562 148.4149932861328 203.68099975585938 143.8419952392578L217.5540008544922 151.9669952392578C217.28199768066406 153.52999877929688 217.1439971923828 155.11300659179688 217.13999938964844 156.69900512695312L217.13999938964844 195.60299682617188L114.06999969482422 255.27000427246094L114.06999969482422 415.3340148925781L252.35400390625 495.3869934082031L390.6369934082031 415.3340148925781L390.6369934082031 255.27000427246094L286.5899963378906 195.03700256347656L286.5899963378906 156.6999969482422C286.5899963378906 155.7169952392578 286.52301025390625 154.75399780273438 286.4179992675781 153.80299377441406C291.8110046386719 150.73300170898438 297.072998046875 147.72300720214844 302.114990234375 144.8090057373047C307.34100341796875 148.80099487304688 313.85101318359375 151.18600463867188 320.87701416015625 151.18600463867188C337.8999938964844 151.18600463867188 351.87701416015625 137.2100067138672 351.87701416015625 120.18599700927734C351.87701416015625 118.31900024414062 351.70098876953125 116.49099731445312 351.3789978027344 114.70999908447266C357.4429931640625 110.71600341796875 363.43701171875 106.61599731445312 369.35699462890625 102.41200256347656C373.3269958496094 104.26699829101562 377.73699951171875 105.31199645996094 382.37701416015625 105.31199645996094C399.3999938964844 105.31199645996094 413.4070129394531 91.33599853515625 413.4070129394531 74.31199645996094C413.4049987792969 72.37200164794922 413.2200012207031 70.43699645996094 412.85400390625 68.53199768066406C418.3489990234375 63.89099884033203 423.78900146484375 59.18600082397461 429.1719970703125 54.41600036621094C440.7720031738281 60.130001068115234 455.3070068359375 58.194000244140625 464.9079895019531 48.59400177001953C472.906005859375 40.59600067138672 475.5830078125 29.173999786376953 472.9530029296875 18.874000549316406L452.5400085449219 18.874000549316406C456.5580139160156 23.761999130249023 456.2760009765625 30.790000915527344 451.69000244140625 35.374000549316406C446.8030090332031 40.262001037597656 439.1400146484375 40.263999938964844 434.25299072265625 35.374000549316406C429.6679992675781 30.788999557495117 429.385986328125 23.760000228881836 433.40301513671875 18.874000549316406L412.989013671875 18.874000549316406C411.0740051269531 26.374000549316406 411.989013671875 34.465999603271484 415.7090148925781 41.402000427246094C411.72900390625 44.91600036621094 407.7170104980469 48.39400100708008 403.67498779296875 51.83599853515625C398.1000061035156 46.54800033569336 390.5920104980469 43.28099822998047 382.37799072265625 43.28099822998047C365.35400390625 43.28099822998047 351.3479919433594 57.29100036621094 351.3479919433594 74.31300354003906C351.3479919433594 79.76300048828125 352.7860107421875 84.89600372314453 355.2959899902344 89.36299896240234C351.0679931640625 92.30899810791016 346.802001953125 95.19999694824219 342.4989929199219 98.03600311279297C336.89898681640625 92.55599975585938 329.2590026855469 89.15599822998047 320.8789978027344 89.15599822998047C303.85400390625 89.15599822998047 289.84698486328125 103.16600036621094 289.84698486328125 120.18800354003906C289.84698486328125 123.35399627685547 290.33099365234375 126.41300201416016 291.2300109863281 129.29800415039062C287 131.7429962158203 282.4859924316406 134.3260040283203 277.9830017089844 136.9029998779297C276.97100830078125 135.91799926757812 275.885986328125 135.00999450683594 274.73699951171875 134.18699645996094C268.0450134277344 129.41900634765625 260.0169982910156 127.30500030517578 252.0229949951172 127.1729965209961C244.02699279785156 127.04100036621094 235.8730010986328 128.89100646972656 229.05299377441406 133.677001953125C228.24000549316406 134.24899291992188 227.45899963378906 134.86700439453125 226.71600341796875 135.52699279785156C222.3489990234375 132.95399475097656 217.95199584960938 130.36300659179688 213.7689971923828 127.90499877929688C214.41099548339844 125.43499755859375 214.7530059814453 122.8489990234375 214.7530059814453 120.18900299072266C214.7530059814453 103.16500091552734 200.74600219726562 89.15699768066406 183.72300720214844 89.15699768066406C175.74600219726562 89.15699768066406 168.43299865722656 92.23200225830078 162.91099548339844 97.2509994506836C158.46200561523438 94.43599700927734 154.04600524902344 91.57099914550781 149.66299438476562 88.65499877929688C152.00100708007812 84.23699951171875 153.22300720214844 79.31400299072266 153.22300720214844 74.31500244140625C153.22300720214844 57.290000915527344 139.24600219726562 43.28200149536133 122.2229995727539 43.28200149536133C113.96299743652344 43.28200149536133 106.41899871826172 46.58599853515625 100.83499908447266 51.92399978637695C96.1760025024414 47.9739990234375 91.5780029296875 43.95100021362305 87.04499816894531 39.856998443603516C90.10800170898438 33.28200149536133 90.76000213623047 25.82699966430664 88.98500061035156 18.87700080871582L68.56800079345703 18.87700080871582C72.58599853515625 23.763999938964844 72.30400085449219 30.79199981689453 67.71800231933594 35.37699890136719C62.83100128173828 40.263999938964844 55.167999267578125 40.26499938964844 50.28099822998047 35.37699890136719C45.696998596191406 30.791000366210938 45.41600036621094 23.761999130249023 49.43299865722656 18.87700080871582L29.01799964904785 18.87700080871582Z" class="" fill="#e2d754" fill-opacity="1"></path><path d="M122.21800231933594 61.96900177001953C129.14199829101562 61.96900177001953 134.531005859375 67.38899993896484 134.531005859375 74.31199645996094C134.531005859375 81.23500061035156 129.1439971923828 86.6240005493164 122.22100067138672 86.6240005493164C115.29499816894531 86.6240005493164 109.8759994506836 81.23400115966797 109.8759994506836 74.31099700927734C109.8759994506836 67.38800048828125 115.2959976196289 61.96799850463867 122.22000122070312 61.96799850463867Z" class="" fill="#d0021b" fill-opacity="1"></path><path d="M382.375 61.96900177001953C389.29901123046875 61.96900177001953 394.718994140625 67.38899993896484 394.718994140625 74.31199645996094C394.718994140625 81.23500061035156 389.29901123046875 86.6240005493164 382.3739929199219 86.6240005493164C375.45001220703125 86.6240005493164 370.0299987792969 81.23400115966797 370.0299987792969 74.31099700927734C370.0299987792969 67.38800048828125 375.45001220703125 61.96799850463867 382.375 61.96799850463867Z" class="" fill="#d0021b" fill-opacity="1"></path><path d="M183.72000122070312 107.84300231933594C190.64199829101562 107.84300231933594 196.06300354003906 113.26300048828125 196.06300354003906 120.18699645996094C196.06300354003906 127.11000061035156 190.64300537109375 132.49899291992188 183.718994140625 132.49899291992188C176.79299926757812 132.49899291992188 171.37399291992188 127.10900115966797 171.37399291992188 120.18599700927734C171.37399291992188 113.26300048828125 176.79400634765625 107.84300231933594 183.71800231933594 107.84300231933594Z" class="" fill="#d0021b" fill-opacity="1"></path><path d="M320.875 107.84300231933594C327.79901123046875 107.84300231933594 333.18798828125 113.26300048828125 333.18798828125 120.18699645996094C333.18798828125 127.11000061035156 327.7980041503906 132.49899291992188 320.875 132.49899291992188C313.95098876953125 132.49899291992188 308.531005859375 127.10900115966797 308.531005859375 120.18599700927734C308.531005859375 113.26300048828125 313.95098876953125 107.84300231933594 320.8760070800781 107.84300231933594Z" class="" fill="#d0021b" fill-opacity="1"></path><path d="M251.71099853515625 145.8560028076172C256.406005859375 145.9340057373047 261.0660095214844 147.39199829101562 263.8909912109375 149.406005859375C266.7170104980469 151.41799926757812 267.9010009765625 153.21099853515625 267.9010009765625 156.697998046875L267.9010009765625 184.21800231933594L252.35499572753906 175.21800231933594L235.82899475097656 184.7830047607422L235.82899475097656 156.6999969482422C235.82899475097656 152.61000061035156 237.08700561523438 150.86500549316406 239.78199768066406 148.97500610351562C242.47799682617188 147.0850067138672 247.0189971923828 145.77999877929688 251.71200561523438 145.85699462890625Z" class="selected" fill="#3ba1df" fill-opacity="1"></path><path d="M243.58900451660156 201.88600158691406L243.58900451660156 234.61399841308594L169.40699768066406 277.8240051269531L140.8489990234375 261.36199951171875L243.58900451660156 201.88600158691406Z" class="" fill="#73c9fe" fill-opacity="1"></path><path d="M262.2760009765625 202.55599975585938L364.4360046386719 261.6940002441406L335.81201171875 278.1960144042969L262.27899169921875 235.36599731445312L262.2770080566406 202.55599975585938Z" class="" fill="#aaddfc" fill-opacity="1"></path><path d="M252.28799438476562 251.17599487304688L324.54400634765625 293.260986328125L324.5419921875 377.5769958496094L252.28900146484375 419.6629943847656L180.0330047607422 377.5769958496094L180.03599548339844 293.26300048828125L252.2899932861328 251.1750030517578Z" class="" fill="#48baff" fill-opacity="1"></path><path d="M252.7530059814453 269.5060119628906L195.8699951171875 367.656005859375L195.8699951171875 368.3800048828125L252.43600463867188 401.35699462890625L309 368.3800048828125L309 302.2950134277344L252.7519989013672 269.5050048828125Z" class="" fill="#b3e2ff" fill-opacity="1"></path><path d="M132.75900268554688 278.2699890136719L161.34500122070312 294.75L161.34500122070312 378.7770080566406L132.75900268554688 395.2569885253906L132.75900268554688 278.2720031738281Z" class="" fill="#44a1da" fill-opacity="1"></path><path d="M371.9490051269531 278.93798828125L371.9460144042969 394.58599853515625L343.2309875488281 378.0329895019531L343.2309875488281 295.4930114746094L371.947998046875 278.93798828125Z" class="" fill="#6cc7fe" fill-opacity="1"></path><path d="M333.4930114746094 393.989990234375L361.9070129394531 410.3699951171875L262.2770080566406 468.0469970703125L262.2770080566406 435.4729919433594L333.4930114746094 393.989990234375Z" class="" fill="#1f8acc" fill-opacity="1"></path><path d="M171.72300720214844 394.364990234375L243.58700561523438 436.2250061035156L243.58700561523438 468.718994140625L143.3769989013672 410.70599365234375L171.7220001220703 394.364013671875Z" class="" fill="#3383b3" fill-opacity="1"></path></g></g></svg>