<svg style="height: 512px; width: 512px;" xmlns="http://www.w3.org/2000/svg" viewBox="0 0 512 512"><path d="M0 0h512v512H0z" fill="#000000" fill-opacity="0.01"></path><g class="" style="" transform="translate(1,12)"><g><path d="M174.68800354003906 61.09400177001953L144.15499877929688 78.72000122070312C204.29800415039062 150.60499572753906 316.010986328125 148.26699829101562 366.93499755859375 78.72000122070312L336.4049987792969 61.09400177001953C324.94500732421875 84.58399963378906 292.8349914550781 101.71900177001953 255.24899291992188 101.71900177001953C217.66299438476562 101.71900177001953 186.1490020751953 84.58200073242188 174.68600463867188 61.09299850463867Z" class="selected" fill="#e1364b" fill-opacity="1"></path><path d="M383.18798828125 88.09400177001953C378.1180114746094 95.2300033569336 372.531005859375 101.76899719238281 366.4679870605469 107.68800354003906L385.43798828125 142.031005859375L407.4679870605469 102.1259994506836L383.18798828125 88.09600067138672Z" class="" fill="#d0021b" fill-opacity="1"></path><path d="M127.75 88.18800354003906L53.9370002746582 130.80999755859375L120.81300354003906 243.18499755859375L154.68699645996094 223.5290069580078L151.90699768066406 286.1239929199219L164.43699645996094 308.7799987792969L185.18699645996094 271.2200012207031L169.81199645996094 243.406005859375L186.156005859375 234.37600708007812L208.93600463867188 275.593994140625L231.68600463867188 234.37399291992188L248.031005859375 243.406005859375L217.09500122070312 299.406005859375L208.93899536132812 314.218994140625L200.75100708007812 299.4049987792969L195.84500122070312 290.5299987792969L172.59500122070312 332.593994140625L164.40699768066406 347.406005859375L156.25100708007812 332.593994140625L150.31300354003906 321.8739929199219L146.81300354003906 400.81201171875L228.7830047607422 400.81201171875L200.25100708007812 349.125L216.62600708007812 340.0950012207031L239.37600708007812 381.31201171875L262.1260070800781 340.093994140625L262.656005859375 340.3739929199219L248.78199768066406 315.281005859375L265.12701416015625 306.2510070800781L287.87701416015625 347.47100830078125L310.6570129394531 306.2510070800781L312 307L297.2799987792969 280.343994140625L313.656005859375 271.3139953613281L336.406005859375 312.5L359.1260070800781 271.375L357 223.52999877929688L390 242.68699645996094L456.7200012207031 130.531005859375L423.68701171875 111.47100067138672L393.625 165.87600708007812L385.43701171875 180.68899536132812L377.25 165.87600708007812L370.81201171875 154.22000122070312L345.093994140625 200.81300354003906L336.906005859375 215.625L328.75 200.81199645996094L322 188.593994140625L296.56201171875 234.656005859375L288.406005859375 249.468994140625L280.218994140625 234.65499877929688L249.2790069580078 178.65499877929688L265.6549987792969 169.625L288.4049987792969 210.81100463867188L311.1549987792969 169.62399291992188L311.7179870605469 169.93699645996094L298.15399169921875 145.37399291992188C268.48699951171875 152.82000732421875 236.44900512695312 151.81199645996094 206.4669952392578 142.18600463867188L180.6529998779297 188.93600463867188L172.46600341796875 203.74899291992188L164.2760009765625 188.93600463867188L158.65199279785156 178.71800231933594L138.40199279785156 215.3419952392578L130.21499633789062 230.1540069580078L122.05799865722656 215.3419952392578L91.12000274658203 159.3419952392578L107.46399688720703 150.31199645996094L130.24400329589844 191.5290069580078L147.96400451660156 159.40499877929688L133.36900329589844 132.93499755859375L149.71299743652344 123.90499877929688L169.2729949951172 159.31100463867188L169.33700561523438 159.34300231933594L169.3070068359375 159.3730010986328L172.46200561523438 165.09300231933594L188.83599853515625 135.43699645996094C165.91799926757812 125.11199951171875 144.8209991455078 109.38999938964844 127.74199676513672 88.18699645996094Z" class="" fill="#d0021b" fill-opacity="1"></path><path d="M351.9700012207031 120.06199645996094C340.989990234375 128.2480010986328 328.9750061035156 134.78500366210938 316.31201171875 139.656005859375L336.93701171875 176.968994140625L359.68701171875 135.74899291992188L361.031005859375 136.49899291992188L351.97100830078125 120.06099700927734Z" class="" fill="#d0021b" fill-opacity="1"></path><path d="M472.906005859375 139.875L406.156005859375 252.06300354003906L429.06201171875 265.3429870605469L493.875 152L472.9049987792969 139.875Z" class="" fill="#a20f21" fill-opacity="1"></path><path d="M37.75 140.15499877929688L17.219999313354492 152L82.625 265.343994140625L104.625 252.56399536132812L37.75 140.1540069580078Z" class="" fill="#a20f21" fill-opacity="1"></path><path d="M360.7200012207031 307.18701171875L344.593994140625 336.375L336.406005859375 351.18798828125L328.218994140625 336.375L321.77899169921875 324.718994140625L296.06201171875 371.27899169921875L287.8739929199219 386.0929870605469L279.7179870605469 371.2799987792969L272.9679870605469 359.06298828125L249.93499755859375 400.81298828125L364.87298583984375 400.81298828125L360.7170104980469 307.18798828125Z" class="" fill="#a20f21" fill-opacity="1"></path><path d="M146 419.5L144.77999877929688 446.75L366.906005859375 446.75L365.6860046386719 419.5L239.62600708007812 419.5L239.37600708007812 419.9700012207031L239.12600708007812 419.5L146 419.5Z" class="" fill="#a20f21" fill-opacity="1"></path></g></g></svg>