<svg style="height: 512px; width: 512px;" xmlns="http://www.w3.org/2000/svg" viewBox="0 0 512 512"><path d="M0 0h512v512H0z" fill="#000000" fill-opacity="0.01"></path><g class="" style="" transform="translate(1,12)"><g><path d="M48.90599822998047 19.6560001373291L48.90599822998047 30.437999725341797C48.90599822998047 133.61099243164062 59.43600082397461 236.50799560546875 90.21900177001953 319.9679870605469C120.9990005493164 403.4309997558594 172.98199462890625 468.06201171875 254.74899291992188 490.531005859375L256.93701171875 491.1570129394531L259.18701171875 490.6570129394531C348.87298583984375 471.5369873046875 401.5090026855469 406.6289978027344 430.3739929199219 322.31298828125C459.239013671875 237.9980010986328 465.7799987792969 133.65699768066406 465.7799987792969 30.437999725341797L465.7799987792969 19.658000946044922L455.125 21.187999725341797C323.260009765625 39.95399856567383 191.45199584960938 40 59.595001220703125 21.187999725341797L48.904998779296875 19.658000946044922Z" class="" fill="#4a4a4a" fill-opacity="1"></path><path d="M67.75 41.029998779296875C130.99200439453125 49.566001892089844 194.2449951171875 53.821998596191406 257.5 53.8120002746582L257.5 238.343994140625L432.2799987792969 238.343994140625C427.375 265.9159851074219 420.9700012207031 292.09100341796875 412.68798828125 316.281005859375C385.3399963378906 396.1650085449219 338.9309997558594 453.6109924316406 257.531005859375 471.8450012207031C257.52301025390625 471.8420104980469 257.510986328125 471.8479919433594 257.5010070800781 471.8450012207031L257.5010070800781 238.34500122070312L86.52999877929688 238.34500122070312C73.66000366210938 177.35499572753906 68.25299835205078 109.53500366210938 67.75 41.03200149536133Z" class="selected" fill="#c9c9c9" fill-opacity="1"></path></g></g></svg>