<svg style="height: 512px; width: 512px;" xmlns="http://www.w3.org/2000/svg" viewBox="0 0 512 512"><path d="M0 0h512v512H0z" fill="#000000" fill-opacity="0.01"></path><g class="" style="" transform="translate(0,12)"><g><path d="M344.5780029296875 493.5400085449219L227.36399841308594 491.5159912109375L118.9000015258789 338.5360107421875L133.2550048828125 287.1830139160156L168.5189971923828 296.56298828125L208.66400146484375 338.59600830078125L191.19700622558594 278.72198486328125L215.0330047607422 243.36399841308594L172.28500366210938 139.3300018310547L215.4499969482422 59.880001068115234L287.8840026855469 82.3479995727539L334.1440124511719 162.80799865722656L304.6700134277344 167.80799865722656L266.1919860839844 132.79100036621094L288.760009765625 180.85499572753906L288.0880126953125 218.218994140625L261.99798583984375 236.4429931640625L296.947998046875 237.7270050048828L344.0929870605469 261.56201171875L372.8429870605469 233.68800354003906L411.33099365234375 252.7449951171875L421.9779968261719 290.322998046875L403.00799560546875 276.53900146484375L324.8420104980469 316.5060119628906L279.8590087890625 301.1159973144531L285.718994140625 273.9630126953125L242.9530029296875 277.23699951171875L266.5260009765625 289.1499938964844L257.0360107421875 312.0929870605469L315.072998046875 343.37799072265625L335.4129943847656 422.8009948730469L319.9630126953125 457.531005859375L349.3599853515625 437.1709899902344L416.19000244140625 427.7330017089844L344.5799865722656 493.5429992675781Z" class="" fill="#676767" fill-opacity="1"></path><path d="M186.0540008544922 490.00201416015625L132.57400512695312 487.70599365234375L160.23699951171875 423.70001220703125L194.61700439453125 473.3949890136719L186.0540008544922 490.00201416015625Z" class="" fill="#dcd045" fill-opacity="1"></path><path d="M99.27400207519531 452.9620056152344L88.19400024414062 418.0870056152344L52.691001892089844 407.88299560546875L87.54900360107422 396.7929992675781L97.76100158691406 361.2929992675781L108.85099792480469 396.14801025390625L144.35299682617188 406.3680114746094L109.49600219726562 417.45001220703125L99.2760009765625 452.9599914550781Z" class="" fill="#fffabd" fill-opacity="1"></path><path d="M352.2569885253906 419.7539978027344L330.6919860839844 335.5260009765625L402.7340087890625 296.5360107421875L456.4169921875 355.8580017089844L437.75201416015625 408.0880126953125L352.2569885253906 419.7539978027344Z" class="" fill="#dcd045" fill-opacity="1"></path><path d="M169.47000122070312 280.677001953125L110.33699798583984 265.06500244140625L90.03900146484375 195.90499877929688L156.10299682617188 158.4550018310547L193.04299926757812 242.58099365234375L169.47000122070312 280.6780090332031Z" class="" fill="#dcd045" fill-opacity="1"></path><path d="M341.57598876953125 241.7050018310547L303.1910095214844 222.0449981689453L304.7650146484375 183.18499755859375L348.37200927734375 173.26800537109375L375.125 212.56399536132812L341.5780029296875 241.70399475097656Z" class="" fill="#dcd045" fill-opacity="1"></path><path d="M400.4209899902344 194.47500610351562L386.18701171875 149.0500030517578L340.0469970703125 135.58999633789062L385.4570007324219 121.3280029296875L398.9169921875 75.19599914550781L413.16900634765625 120.60600280761719L459.3089904785156 134.08399963378906L413.89898681640625 148.31900024414062L400.4219970703125 194.47500610351562Z" class="" fill="#fffabd" fill-opacity="1"></path><path d="M327.010009765625 124.9000015258789L298.343994140625 68.13800048828125L269.37200927734375 60.178001403808594L292.0169982910156 18.459999084472656L321.3290100097656 32.737998962402344L339.16900634765625 92.27999877929688L327.0090026855469 124.9000015258789Z" class="selected" fill="#dcd045" fill-opacity="1"></path></g></g></svg>