<svg style="height: 512px; width: 512px;" xmlns="http://www.w3.org/2000/svg" viewBox="0 0 512 512"><path d="M0 0h512v512H0z" fill="#000000" fill-opacity="0.01"></path><g class="" style="" transform="translate(1,12)"><g><path d="M191.02000427246094 25.34600067138672L168.1199951171875 59.69599914550781L198.83399963378906 59.69599914550781L221.73399353027344 25.34600067138672L191.02000427246094 25.34600067138672Z" class="" fill="#48baff" fill-opacity="1"></path><path d="M243.36700439453125 25.34600067138672L220.468994140625 59.69599914550781L291.52899169921875 59.69599914550781L268.6319885253906 25.34600067138672L243.36599731445312 25.34600067138672Z" class="" fill="#82cefc" fill-opacity="1"></path><path d="M290.2669982910156 25.34600067138672L313.1669921875 59.69599914550781L343.8810119628906 59.69599914550781L320.9809875488281 25.34600067138672L290.2669982910156 25.34600067138672Z" class="" fill="#abddfc" fill-opacity="1"></path><path d="M173.0330047607422 77.69599914550781L223.1479949951172 127.81099700927734L198.08999633789062 77.69599914550781L173.0330047607422 77.69599914550781Z" class="" fill="#2c89c2" fill-opacity="1"></path><path d="M218.21499633789062 77.69599914550781L256 153.26499938964844L293.7850036621094 77.69499969482422L218.21499633789062 77.69499969482422Z" class="selected" fill="#38a2e1" fill-opacity="1"></path><path d="M313.9100036621094 77.69599914550781L288.85198974609375 127.81099700927734L338.9670104980469 77.69599914550781L313.9100036621094 77.69599914550781Z" class="" fill="#3ba1df" fill-opacity="1"></path><path d="M179.47500610351562 109.59400177001953C109.16300201416016 139.5 59.69300079345703 209.2899932861328 59.69300079345703 290.3479919433594C59.69300079345703 398.5329895019531 147.81500244140625 486.65399169921875 256 486.65399169921875C364.18499755859375 486.65399169921875 452.3070068359375 398.53399658203125 452.3070068359375 290.3479919433594C452.3070068359375 209.29100036621094 402.8370056152344 139.5 332.5249938964844 109.59400177001953L302.00799560546875 140.11099243164062C366.4049987792969 159.7030029296875 413.0450134277344 219.4029998779297 413.0450134277344 290.3489990234375C413.0450134277344 377.31500244140625 342.9649963378906 447.3940124511719 256 447.3940124511719C169.03399658203125 447.3940124511719 98.95500183105469 377.3139953613281 98.95500183105469 290.3489990234375C98.95500183105469 219.4029998779297 145.59500122070312 159.7030029296875 209.99200439453125 140.11199951171875L179.47500610351562 109.59600067138672Z" class="" fill="#dcd152" fill-opacity="1"></path></g></g></svg>