<svg style="height: 512px; width: 512px;" xmlns="http://www.w3.org/2000/svg" viewBox="0 0 512 512"><path d="M0 0h512v512H0z" fill="#000000" fill-opacity="0.01"></path><g class="" style="" transform="translate(0,12)"><g><path d="M256 29.59000015258789C210.5 29.59000015258789 164.3000030517578 48.7599983215332 129.8000030517578 77.5C97.4800033569336 104.4000015258789 75.91999816894531 139.39999389648438 73.27999877929688 173.60000610351562C75.76000213623047 174.1999969482422 78.26000213623047 174.8000030517578 80.76000213623047 175.39999389648438C142.5 189.60000610351562 204.10000610351562 196.3000030517578 265.79998779296875 195.5C264 191.3000030517578 263.20001220703125 186.60000610351562 264 181.6999969482422C265.6000061035156 172.8000030517578 272.20001220703125 166.3000030517578 279.79998779296875 162.8000030517578C287.3999938964844 159.1999969482422 296.6000061035156 158.10000610351562 305.8999938964844 159.8000030517578C306.29998779296875 159.89999389648438 306.70001220703125 160 307.20001220703125 160.10000610351562C306.8999938964844 159 306.79998779296875 157.8000030517578 306.6000061035156 156.6999969482422C305.20001220703125 147 306.6000061035156 137.8000030517578 310.5 130.10000610351562C314.3999938964844 122.5 321.3999938964844 116 330.3999938964844 114.80000305175781C339.3999938964844 113.5 347.8999938964844 117.80000305175781 353.70001220703125 124C359.1000061035156 130 362.8999938964844 137.6999969482422 364.5 146.60000610351562C364.70001220703125 146.3000030517578 365 146 365.20001220703125 145.6999969482422C371.3999938964844 138.10000610351562 379.1000061035156 132.89999389648438 387.3999938964844 130.5C395.6000061035156 128.10000610351562 405 128.8000030517578 412.1000061035156 134.60000610351562C419.20001220703125 140.3000030517578 421.8999938964844 149.39999389648438 421.29998779296875 157.89999389648438C420.70001220703125 165.1999969482422 418.1000061035156 172.5 413.5 179.1999969482422C415.70001220703125 178.6999969482422 418 178.3000030517578 420.20001220703125 177.8000030517578C421.8999938964844 177.5 423.6000061035156 177.10000610351562 425.29998779296875 176.6999969482422C426.3999938964844 176.5 427.6000061035156 176.1999969482422 428.70001220703125 176C432 175.1999969482422 435.3999938964844 174.39999389648438 438.70001220703125 173.60000610351562C436.1000061035156 139.39999389648438 414.5 104.4000015258789 382.20001220703125 77.5C347.70001220703125 48.7599983215332 301.5 29.59000015258789 256 29.59000015258789Z" class="" fill="#f8b3f8" fill-opacity="1"></path><path d="M333.70001220703125 132.5C333.5 132.5 333.20001220703125 132.60000610351562 332.8999938964844 132.60000610351562C330.70001220703125 132.89999389648438 328.5 134.39999389648438 326.5 138.1999969482422C324.6000061035156 142.10000610351562 323.5 147.8000030517578 324.3999938964844 154.1999969482422C325.1000061035156 159.3000030517578 327 163.8000030517578 329.29998779296875 167C334.3999938964844 163.89999389648438 340.20001220703125 162.10000610351562 346.5 162C347.20001220703125 158.8000030517578 347.5 154.89999389648438 347 151C346.1000061035156 144.6999969482422 343.3999938964844 139.5 340.6000061035156 136.3000030517578C338 133.5 335.70001220703125 132.5 333.70001220703125 132.5Z" class="selected" fill="#48baff" fill-opacity="1"></path><path d="M396.3999938964844 147.10000610351562C395.20001220703125 147.10000610351562 393.8999938964844 147.3000030517578 392.29998779296875 147.6999969482422C388.20001220703125 149 383.20001220703125 152.10000610351562 379.20001220703125 157.10000610351562C375.20001220703125 162 373.20001220703125 167.5 372.79998779296875 171.8000030517578L372.79998779296875 173.10000610351562C375.1000061035156 175.5 377.1000061035156 178.3000030517578 378.70001220703125 181.3000030517578C380.1000061035156 181.5 381.79998779296875 181.3000030517578 383.8999938964844 180.6999969482422C387.8999938964844 179.5 393 176.3000030517578 396.8999938964844 171.39999389648438C401 166.39999389648438 402.8999938964844 161 403.29998779296875 156.6999969482422C403.6000061035156 152.39999389648438 402.5 149.89999389648438 400.79998779296875 148.5C399.70001220703125 147.6999969482422 398.29998779296875 147.10000610351562 396.3999938964844 147.10000610351562Z" class="" fill="#48baff" fill-opacity="1"></path><path d="M298.3999938964844 177.10000610351562C294.1000061035156 177 290.20001220703125 177.8000030517578 287.3999938964844 179C283.6000061035156 180.8000030517578 282.1000061035156 182.89999389648438 281.79998779296875 184.89999389648438C281.3999938964844 186.8000030517578 282.1000061035156 189.3000030517578 285 192.1999969482422C287.8999938964844 195.10000610351562 292.8999938964844 197.89999389648438 298.8999938964844 199C303.29998779296875 199.8000030517578 307.6000061035156 199.5 311 198.60000610351562C311.20001220703125 193 312.6000061035156 187.60000610351562 314.8999938964844 182.8000030517578C311.8999938964844 180.5 307.70001220703125 178.39999389648438 302.79998779296875 177.5C301.29998779296875 177.3000030517578 299.79998779296875 177.10000610351562 298.3999938964844 177.10000610351562Z" class="" fill="#48baff" fill-opacity="1"></path><path d="M347.20001220703125 180C337.3999938964844 180 329 188.5 329 199.8000030517578C329 211.10000610351562 337.3999938964844 219.60000610351562 347.20001220703125 219.60000610351562C357 219.60000610351562 365.3999938964844 211.10000610351562 365.3999938964844 199.8000030517578C365.3999938964844 188.5 357 180 347.20001220703125 180Z" class="" fill="#e4da63" fill-opacity="1"></path><path d="M68.76000213623047 191C62.18000030517578 203.8000030517578 41.540000915527344 242.1999969482422 16.610000610351562 271.6000061035156C180.89999389648438 314.1000061035156 331.1000061035156 314.1000061035156 495.3999938964844 271.6000061035156C470.5 242.1999969482422 449.79998779296875 203.8000030517578 443.20001220703125 191C438.29998779296875 192.1999969482422 433.3999938964844 193.3000030517578 428.6000061035156 194.39999389648438C433 199.6999969482422 435.70001220703125 206.39999389648438 434.79998779296875 213.6999969482422C433.79998779296875 222.6999969482422 427.6000061035156 229.89999389648438 420.1000061035156 233.89999389648438C412.5 238 403.3999938964844 239.6999969482422 393.6000061035156 238.60000610351562C390.70001220703125 238.3000030517578 388 237.8000030517578 385.29998779296875 237C386.1000061035156 239.8000030517578 386.79998779296875 242.6999969482422 387.1000061035156 245.8000030517578C388.20001220703125 255.60000610351562 386.5 264.70001220703125 382.3999938964844 272.29998779296875C378.29998779296875 279.79998779296875 371.1000061035156 286 362.1000061035156 287C353 288 344.70001220703125 283.5 339 277.1000061035156C334.20001220703125 271.5 330.79998779296875 264.5 329.20001220703125 256.5C322.20001220703125 263.29998779296875 313.79998779296875 267.5 305.29998779296875 268.8999938964844C296.8999938964844 270.20001220703125 287.6000061035156 268.29998779296875 281.29998779296875 261.79998779296875C275 255.1999969482422 273.3999938964844 245.89999389648438 275.1000061035156 237.5C276.79998779296875 229.3000030517578 281.20001220703125 221.3000030517578 287.8999938964844 214.60000610351562C286.5 214.10000610351562 285.20001220703125 213.60000610351562 283.8999938964844 213C212.1999969482422 215.5 140.39999389648438 208.1999969482422 68.76000213623047 191Z" class="" fill="#e28dc9" fill-opacity="1"></path><path d="M393.79998779296875 197.89999389648438C389.79998779296875 198 386.20001220703125 198.89999389648438 383.3999938964844 200.10000610351562C383.29998779296875 205.1999969482422 382.29998779296875 210.10000610351562 380.5 214.60000610351562L380.70001220703125 214.8000030517578C384 217.5 389.3999938964844 220.10000610351562 395.6000061035156 220.8000030517578C402 221.5 407.70001220703125 220.1999969482422 411.5 218.1999969482422C415.29998779296875 216.10000610351562 416.70001220703125 213.8000030517578 417 211.6999969482422C417.20001220703125 209.5 416.29998779296875 207 413.1000061035156 204.10000610351562C409.79998779296875 201.3000030517578 404.5 198.8000030517578 398.1000061035156 198.10000610351562C397.29998779296875 198 396.6000061035156 198 395.79998779296875 197.89999389648438Z" class="" fill="#48baff" fill-opacity="1"></path><path d="M316.29998779296875 219.39999389648438C315.8999938964844 219.39999389648438 315.3999938964844 219.39999389648438 315 219.5C310.79998779296875 220.1999969482422 305.5 222.6999969482422 300.8999938964844 227.10000610351562C296.29998779296875 231.5 293.6000061035156 236.6999969482422 292.70001220703125 240.89999389648438C291.8999938964844 245.1999969482422 292.79998779296875 247.6999969482422 294.29998779296875 249.3000030517578C295.79998779296875 250.89999389648438 298.29998779296875 251.8000030517578 302.6000061035156 251.10000610351562C306.79998779296875 250.39999389648438 312.1000061035156 247.89999389648438 316.70001220703125 243.5C321.29998779296875 239.10000610351562 324 233.89999389648438 324.8999938964844 229.6999969482422L324.8999938964844 229.5C321.5 226.6999969482422 318.5 223.3000030517578 316.29998779296875 219.39999389648438Z" class="" fill="#48baff" fill-opacity="1"></path><path d="M363.6000061035156 233.5C358.8999938964844 236 353.5 237.5 347.79998779296875 237.60000610351562C346.6000061035156 241.10000610351562 346 245.60000610351562 346.5 250.3000030517578C347.20001220703125 256.70001220703125 349.70001220703125 262 352.5 265.29998779296875C355.3999938964844 268.5 357.8999938964844 269.3999938964844 360.1000061035156 269.20001220703125C362.29998779296875 268.8999938964844 364.5 267.5 366.6000061035156 263.70001220703125C368.6000061035156 259.8999938964844 369.8999938964844 254.1999969482422 369.20001220703125 247.8000030517578C368.5 241.89999389648438 366.29998779296875 236.8000030517578 363.6000061035156 233.5Z" class="" fill="#48baff" fill-opacity="1"></path><path d="M148 315C155.39999389648438 367.70001220703125 165.89999389648438 406.20001220703125 178.60000610351562 433.1000061035156C187.8000030517578 452.79998779296875 198.1999969482422 466.5 210.1999969482422 474.6000061035156C222.3000030517578 482.70001220703125 236.3000030517578 484.3999938964844 249 480.20001220703125C274.3999938964844 471.79998779296875 295 444 311.3999938964844 405.8999938964844C322.29998779296875 380.79998779296875 331 350.79998779296875 336.6000061035156 317.8999938964844C330.3999938964844 318.5 324.29998779296875 318.8999938964844 318.1000061035156 319.3999938964844C312.70001220703125 349.20001220703125 304.6000061035156 376.29998779296875 294.8999938964844 398.79998779296875C279.5 434.6000061035156 259.5 457.79998779296875 243.39999389648438 463.1000061035156C235.3000030517578 465.79998779296875 228.39999389648438 465.1000061035156 220.3000030517578 459.70001220703125C212.1999969482422 454.20001220703125 203.1999969482422 443.29998779296875 194.89999389648438 425.5C183.6999969482422 401.8999938964844 173.8000030517578 366.29998779296875 166.5 317.1000061035156C160.39999389648438 316.3999938964844 154.1999969482422 315.79998779296875 148 315Z" class="" fill="#c8c993" fill-opacity="1"></path></g></g></svg>