<svg style="height: 512px; width: 512px;" xmlns="http://www.w3.org/2000/svg" viewBox="0 0 512 512"><defs><linearGradient x1="0" x2="0" y1="0" y2="1" id="lorc-trousers-gradient-2"><stop offset="0%" stop-color="#fc88fc" stop-opacity="1"></stop><stop offset="100%" stop-color="#48baff" stop-opacity="1"></stop></linearGradient></defs><path d="M0 0h512v512H0z" fill="#000000" fill-opacity="0.01"></path><g class="" style="" transform="translate(1,12)"><g><path d="M258.375 21.1560001373291C213.8179931640625 21.343000411987305 171.13499450683594 28.531999588012695 139.81199645996094 42.15599822998047L138.03199768066406 58.25L163.68699645996094 58.25L163.68699645996094 76.93800354003906L136 76.93800354003906L133.875 96.34400177001953L163.68800354003906 96.34400177001953L163.68800354003906 115.03099822998047L131.81300354003906 115.03099822998047L93.09300231933594 467.9070129394531L216.43699645996094 492.7200012207031L250.593994140625 229.875L236.68800354003906 229.875L236.68800354003906 132.12600708007812L220.94000244140625 132.12600708007812L220.94000244140625 115.02999877929688L182.3780059814453 115.02999877929688L182.3780059814453 96.34500122070312L220.9409942626953 96.34500122070312L220.9409942626953 76.93800354003906L182.3780059814453 76.93800354003906L182.3780059814453 58.25L220.9409942626953 58.25L220.9409942626953 41.529998779296875L311.8789978027344 41.529998779296875L311.8789978027344 58.25L344.90899658203125 58.25L344.90899658203125 76.93800354003906L311.8789978027344 76.93800354003906L311.8789978027344 96.34400177001953L344.90899658203125 96.34400177001953L344.90899658203125 115.03099822998047L311.8789978027344 115.03099822998047L311.8789978027344 132.12600708007812L255.3800048828125 132.12600708007812L255.3800048828125 211.18899536132812L282.7860107421875 211.18899536132812L282.7860107421875 229.87600708007812L271.22601318359375 229.87600708007812L305.47601318359375 493.6260070800781L305.6929931640625 493.6260070800781L434.7560119628906 467.34600830078125L396.0360107421875 115.03199768066406L363.6000061035156 115.03199768066406L363.6000061035156 96.34500122070312L394 96.34500122070312L391.843994140625 76.93900299072266L363.593994140625 76.93900299072266L363.593994140625 58.25L389.8139953613281 58.25L388.031005859375 42.15599822998047C349.3340148925781 27.847999572753906 302.9330139160156 20.986000061035156 258.3760070800781 21.1560001373291Z" class="selected" fill="url(#lorc-trousers-gradient-2)"></path><path d="M239.625 60.21900177001953L239.625 77.68699645996094L274.56298828125 77.68699645996094L274.56298828125 96.3740005493164L239.625 96.3740005493164L239.625 113.43699645996094L293.18798828125 113.43699645996094L293.18798828125 60.21699905395508L239.625 60.21699905395508Z" class="" fill="#ccc23e" fill-opacity="1"></path></g></g></svg>