<svg style="height: 512px; width: 512px;" xmlns="http://www.w3.org/2000/svg" viewBox="0 0 512 512"><path d="M0 0h512v512H0z" fill="#000000" fill-opacity="0.01"></path><g class="" style="" transform="translate(1,12)"><g><path d="M156.5 21.920000076293945C155.1999969482422 21.920000076293945 154 21.920000076293945 152.6999969482422 22.020000457763672C135.89999389648438 22.8799991607666 117 29.65999984741211 99.69999694824219 40.540000915527344C71.87999725341797 57.959999084472656 49.279998779296875 85.48999786376953 45.09000015258789 108.19999694824219C30.59000015258789 186.89999389648438 54.40999984741211 254.39999389648438 89.91000366210938 318.20001220703125C136.89999389648438 321.6000061035156 180.8000030517578 317 222.89999389648438 307C219.6999969482422 292.6000061035156 217.1999969482422 273.1000061035156 219.1999969482422 255.5C220.1999969482422 246.6999969482422 222.1999969482422 238.3000030517578 226.6999969482422 231.10000610351562C231.10000610351562 224 238.6999969482422 218.1999969482422 248.10000610351562 217.10000610351562C253.89999389648438 216.39999389648438 259.3999938964844 217.39999389648438 264.5 219.39999389648438C266.70001220703125 211.60000610351562 268.79998779296875 203.60000610351562 270.5 195.8000030517578C273.29998779296875 183 275.5 164.60000610351562 273.8999938964844 150.3000030517578C273.1000061035156 143.1999969482422 271.29998779296875 137.1999969482422 269 133.5C266.70001220703125 129.8000030517578 264.70001220703125 128.3000030517578 260.79998779296875 127.80000305175781C255.5 127.19999694824219 249.6999969482422 129.8000030517578 243.1999969482422 135.8000030517578C236.8000030517578 141.89999389648438 230.3000030517578 150.89999389648438 224.8000030517578 160.39999389648438C214 179.1999969482422 207.10000610351562 198.8000030517578 207.10000610351562 198.8000030517578L190 193.8000030517578C190 193.8000030517578 199.3000030517578 156.89999389648438 202.1999969482422 117.19999694824219C203.60000610351562 97.2300033569336 203.39999389648438 76.6500015258789 199.89999389648438 60.18000030517578C196.39999389648438 43.709999084472656 189.89999389648438 32.22999954223633 180.1999969482422 27.190000534057617C173.1999969482422 23.600000381469727 165.1999969482422 21.93000030517578 156.5 21.920000076293945Z" class="" fill="#e1364b" fill-opacity="1"></path><path d="M355 128.5C346.29998779296875 128.5 338.20001220703125 130.1999969482422 331.20001220703125 133.8000030517578C321.3999938964844 138.89999389648438 314.8999938964844 150.39999389648438 311.3999938964844 166.89999389648438C307.8999938964844 183.5 307.70001220703125 204.10000610351562 309.1000061035156 224.10000610351562C312 264.1000061035156 321.3999938964844 301.1000061035156 321.3999938964844 301.1000061035156L304.20001220703125 306.20001220703125C304.20001220703125 306.20001220703125 297.29998779296875 286.5 286.3999938964844 267.6000061035156C280.8999938964844 258.1000061035156 274.3999938964844 249 267.8999938964844 242.89999389648438C261.3999938964844 236.89999389648438 255.60000610351562 234.3000030517578 250.3000030517578 234.89999389648438C246.3000030517578 235.39999389648438 244.3000030517578 236.89999389648438 242 240.60000610351562C239.6999969482422 244.3000030517578 237.89999389648438 250.3000030517578 237.10000610351562 257.5C235.5 271.79998779296875 237.6999969482422 290.29998779296875 240.5 303.20001220703125C251 350.8999938964844 273.6000061035156 402.3999938964844 278 412.20001220703125C323.3999938964844 424.1000061035156 370.8999938964844 429.79998779296875 421.8999938964844 426.1000061035156C457.6000061035156 362 481.3999938964844 294.20001220703125 466.8999938964844 215.1999969482422C462.70001220703125 192.39999389648438 440 164.8000030517578 412.1000061035156 147.3000030517578C394.70001220703125 136.3000030517578 375.70001220703125 129.5 358.79998779296875 128.60000610351562C357.5 128.5 356.29998779296875 128.5 355 128.5Z" class="" fill="#e1364b" fill-opacity="1"></path><path d="M227.1999969482422 324.5C221.6999969482422 325.79998779296875 216.3000030517578 326.8999938964844 210.8000030517578 328.1000061035156L219.1999969482422 373.1000061035156C226.5 371.8999938964844 233.89999389648438 370.5 241.1999969482422 369C236.3000030517578 355.20001220703125 231.3000030517578 339.8999938964844 227.1999969482422 324.5Z" class="selected" fill="#d0021b" fill-opacity="1"></path><path d="M193.1999969482422 331.29998779296875C184.39999389648438 332.79998779296875 175.5 334 166.5 334.8999938964844L174.10000610351562 379.1000061035156C183.3000030517578 378.20001220703125 192.5 377.1000061035156 201.5 375.79998779296875Z" class="" fill="#e1364b" fill-opacity="1"></path><path d="M91.62999725341797 336.3999938964844L92 382.8999938964844C98.55999755859375 382.8999938964844 105 382.79998779296875 111.5 382.6000061035156L109 337.20001220703125C103.19999694824219 337 97.44999694824219 336.79998779296875 91.62999725341797 336.3999938964844Z" class="" fill="#e1364b" fill-opacity="1"></path><path d="M148.39999389648438 336.3999938964844C141.39999389648438 336.8999938964844 134.1999969482422 337.1000061035156 126.9000015258789 337.29998779296875L129.39999389648438 382C138.5 381.70001220703125 147.3000030517578 381.20001220703125 156.1999969482422 380.6000061035156Z" class="" fill="#d0021b" fill-opacity="1"></path><path d="M277.70001220703125 430.79998779296875L266.5 475.3999938964844C275 477.20001220703125 283.3999938964844 478.79998779296875 291.70001220703125 480.20001220703125L300 435.8999938964844C292.5 434.3999938964844 285.1000061035156 432.70001220703125 277.70001220703125 430.79998779296875Z" class="" fill="#e1364b" fill-opacity="1"></path><path d="M317.6000061035156 439.20001220703125L309.3999938964844 482.8999938964844C318.5 484.20001220703125 327.70001220703125 485.29998779296875 336.79998779296875 486.20001220703125L344.29998779296875 442.79998779296875C335.29998779296875 441.79998779296875 326.3999938964844 440.6000061035156 317.6000061035156 439.20001220703125Z" class="" fill="#d0021b" fill-opacity="1"></path><path d="M362.29998779296875 444.3999938964844L354.79998779296875 487.70001220703125C363.6000061035156 488.3999938964844 372.5 488.8999938964844 381.5 489.20001220703125L383.8999938964844 445.20001220703125C376.70001220703125 445.1000061035156 369.5 444.79998779296875 362.29998779296875 444.3999938964844Z" class="" fill="#e1364b" fill-opacity="1"></path><path d="M419.3999938964844 444.3999938964844C413.5 444.79998779296875 407.70001220703125 445.1000061035156 401.8999938964844 445.20001220703125L399.5 489.79998779296875C405.8999938964844 490 412.3999938964844 490.1000061035156 419 490.1000061035156Z" class="" fill="#d0021b" fill-opacity="1"></path></g></g></svg>