<svg width="512" height="512" viewBox="0 0 512 512" fill="none" xmlns="http://www.w3.org/2000/svg">
<g clip-path="url(#clip0_4_14)">
<path d="M137 19V219.9C144 216.8 151.8 215 160 215C168.2 215 176 216.8 183 219.9V19H137ZM201 107.6V172.6L340.4 312C350.5 298.1 359.4 284.8 366.6 273.2L201 107.6ZM362.6 125.8C328.1 126 285.7 139.8 269.3 150.5L384.5 265.6L389.4 270.6L389.3 270.8C410.6 314.4 416.8 413.2 408.8 454.8C383.7 442.2 357.9 401.6 342.6 382.1C342.2 402.6 349.1 445.1 359.5 464.3C324.6 459 302.4 436.2 278.3 416C281.7 440.3 294.3 456.9 320 473.8L208 464L277.3 496H496V384L464 456.3C470.7 381 468.8 151.4 387.2 128.6C379.9 126.6 371.5 125.7 362.6 125.8ZM119 158.5C112.6 164 106.2 169.6 99.9 175.4C66.93 205.7 38.33 239.9 26.57 269.8L199.2 442.4C229.1 430.7 263.3 402.1 293.6 369.1C306.4 355.3 318.4 340.8 329.4 326.6L201 198.2V232.5C210.9 242.7 217 256.7 217 272C217 303.4 191.4 329 160 329C128.6 329 103 303.4 103 272C103 256.7 109.1 242.7 119 232.5V158.5ZM160 233C138.4 233 121 250.4 121 272C121 293.6 138.4 311 160 311C181.6 311 199 293.6 199 272C199 250.4 181.6 233 160 233ZM160 256C164.243 256 168.313 257.686 171.314 260.686C174.314 263.687 176 267.757 176 272C176 276.243 174.314 280.313 171.314 283.314C168.313 286.314 164.243 288 160 288C155.757 288 151.687 286.314 148.686 283.314C145.686 280.313 144 276.243 144 272C144 267.757 145.686 263.687 148.686 260.686C151.687 257.686 155.757 256 160 256Z" fill="white"/>
</g>
<defs>
<clipPath id="clip0_4_14">
<rect width="512" height="512" fill="white"/>
</clipPath>
</defs>
</svg>
