<svg width="512" height="512" viewBox="0 0 512 512" fill="none" xmlns="http://www.w3.org/2000/svg">
<g clip-path="url(#clip0_4_6)">
<path d="M136.1 18.48C141.5 31.07 150.4 41.64 161.6 52.58C175.8 66.57 193.4 80.78 208.7 99.98C244.6 144.9 249.3 199.4 246.9 249.8C246.6 256.4 241.7 260.3 238.3 262.3C235 264.3 231.8 265.5 229 266.8C226.3 268.2 224.2 269.6 223.2 270.6C222.5 271.4 222.3 271.8 222.2 272.8C222.4 272.9 222.4 273 223 273.4C224.6 274.5 227.7 276.1 231.8 277.4C240 280 251.8 281.8 263.7 282.1C275.6 282.4 287.6 281.1 296.1 278.5C303.1 276.3 306.6 273.6 308 271.2C306.6 269.9 303.7 268 300.5 266.1C297.3 264.2 293.7 262.4 290.6 260.5C289 259.6 287.6 258.7 286.1 257.5C284.7 256.4 282.8 255.4 281.5 251.3C275.9 234.8 274.6 209.7 278.1 182.1C281.6 154.5 290 124.7 305.9 101C319.2 81.24 338.3 64.75 354.1 49.39C365.5 38.26 374.6 27.77 379.4 18.48H218.3C233.8 44.7 241.2 87.04 233.8 89.41C229.1 90.93 211 47.86 191.7 18.48H136.1ZM275.7 57.07L300.1 62.9C280.2 89.2 278.4 121.9 266.7 148.8C261.6 121 261.5 84.72 275.7 57.07ZM55.95 169L26.2 407H485.8L456.1 169H298.5C297.5 174.1 296.6 179.2 296 184.3C292.9 208.9 294.5 231.9 298.1 243.9L298.2 244H384L448 272L384 300H273.8C270.3 300.1 266.8 300.2 263.3 300.1C262.5 300.1 261.8 300 261 300H155.9L154 342H122L124.4 288H66L68 256H125.9L128 208H160L158.4 244H229.1C230.1 218.5 228.9 193.1 222.8 169H55.95ZM25 425V487H487V425H25Z" fill="white"/>
</g>
<defs>
<clipPath id="clip0_4_6">
<rect width="512" height="512" fill="white"/>
</clipPath>
</defs>
</svg>
